<svg width="778" height="778" viewBox="0 0 778 778" fill="none" xmlns="http://www.w3.org/2000/svg">
<circle cx="389" cy="389" r="330" fill="#FBCE51"/>
<g style="mix-blend-mode:overlay">
<path d="M531.536 672.056L531.144 671.238L532.641 670.213L528.462 661.862L528.129 664.624L526.225 672.874L526.408 673.33L527.967 672.831L528.359 673.649L523.762 675.982L523.37 675.164L524.626 674.279L519.479 663.835L518.015 664.359L517.623 663.541L522.315 661.233L522.707 662.051L521.357 662.911L525.605 671.384L525.887 668.811L527.843 660.372L527.495 659.769L525.815 660.337L525.423 659.519L530.116 657.212L530.508 658.03L529.157 658.89L534.303 669.334L535.742 668.905L536.134 669.723L531.536 672.056Z" fill="black"/>
<path d="M520.16 677.258C519.653 677.632 519.291 677.84 518.93 678.049C518.568 678.258 518.207 678.466 517.871 678.58C516.476 679.225 515.278 679.515 514.302 679.355C513.326 679.196 512.642 678.707 512.206 677.673C511.84 676.76 511.758 675.924 512.082 675.094C512.407 674.264 512.99 673.606 513.739 673.093C512.705 673.529 511.774 673.585 510.918 673.356C510.089 673.032 509.525 672.473 509.133 671.655C508.558 670.381 508.528 669.354 508.998 668.36C509.468 667.365 510.508 666.523 512.144 665.74C512.842 665.417 513.514 665.19 514.04 665.127C514.592 664.969 515.118 664.907 515.428 664.888C515.739 664.869 515.954 664.825 516.049 664.851L517.047 667.97L516.229 668.362L514.736 666.332C514.045 666.249 513.278 666.451 512.244 666.887C511.452 667.184 511.014 667.678 510.836 668.343C510.657 669.008 510.764 669.75 511.131 670.663C511.453 671.36 511.921 671.893 512.561 672.166C513.201 672.44 514.038 672.358 515.071 671.922L516.225 671.417L516.687 672.355L515.653 672.791C515.197 672.974 514.81 673.278 514.397 673.677C514.08 674.101 513.858 674.551 513.73 675.026C513.698 675.527 513.735 676.148 513.988 676.725C514.285 677.517 514.779 677.955 515.349 678.108C515.919 678.261 516.566 678.129 517.358 677.832C517.84 677.553 518.297 677.37 518.589 677.041C518.881 676.712 519.052 676.452 519.103 676.262L518.75 674.538L519.809 674.007L521.15 676.607C521.029 676.676 520.668 676.885 520.16 677.258Z" fill="black"/>
<path d="M504.937 682.754L506.446 682.445L506.813 683.358L504.435 684.249C504.073 684.457 503.522 684.615 502.945 684.868C502.368 685.121 502.006 685.33 501.765 685.469C500.18 686.063 498.913 686.232 498.057 686.003C497.202 685.774 496.544 685.19 496.203 684.182C495.906 683.389 495.824 682.553 496.123 681.818C496.327 681.058 496.91 680.399 497.633 679.982C496.505 680.392 495.548 680.543 494.718 680.219C493.888 679.895 493.23 679.311 492.889 678.303C492.383 677.149 492.473 676.053 493.064 674.989C493.654 673.925 494.815 673.013 496.736 672.306C497.193 672.123 497.529 672.009 497.96 671.921C498.848 671.649 499.425 671.396 499.64 671.352L501.923 670.436L502.194 671.324L500.774 672.063L504.937 682.754ZM497.033 673.098C495.879 673.604 495.131 674.116 494.737 674.826C494.343 675.535 494.45 676.277 494.722 677.164C495.088 678.077 495.556 678.61 496.196 678.884C496.836 679.157 497.673 679.076 498.706 678.639C499.86 678.134 500.627 677.932 500.989 677.723L499.024 672.511C498.618 672.505 498.041 672.757 497.033 673.098ZM500.296 679.167L499.383 679.534C498.591 679.831 498.058 680.299 497.784 680.939C497.511 681.579 497.523 682.295 497.915 683.113C498.212 683.905 498.68 684.438 499.225 684.686C499.77 684.934 500.606 684.853 501.64 684.417C502.096 684.233 502.458 684.025 502.914 683.841L503.276 683.633L501.425 678.757C501.184 678.896 500.848 679.01 500.296 679.167Z" fill="black"/>
<path d="M490.099 689.473L488.178 690.181L479.768 679.371L478.595 679.566L478.324 678.679L483.028 677.087L483.3 677.975L481.905 678.62L483.607 681.011L488.768 679.236L488.72 676.372L487.117 676.655L486.845 675.767L491.093 674.359L491.365 675.247L490.306 675.778L490.099 689.473ZM488.112 687.005L489.067 688.382L488.93 686.613L488.773 680.358L484.284 681.905L488.112 687.005Z" fill="black"/>
<path d="M475.483 680.158C476.623 680.464 477.497 681.004 478.27 681.923C479.042 682.843 479.668 683.928 480.002 685.342C480.362 686.66 480.436 687.902 480.2 689.163C479.964 690.424 479.399 691.393 478.574 692.191C477.749 692.988 476.76 693.64 475.536 694.025C474.649 694.297 473.476 694.492 472.139 694.541L471.517 694.578L470.761 691.32L471.984 690.934L473.142 693.078C473.332 693.129 473.712 693.231 474.117 693.237C474.523 693.244 475.075 693.087 475.721 692.954C476.488 692.752 477.116 692.309 477.58 691.721C478.043 691.132 478.367 690.302 478.406 689.396C478.445 688.489 478.345 687.342 478.03 686.239C477.714 685.136 477.278 684.102 476.671 683.329C476.063 682.555 475.43 681.876 474.695 681.577C473.961 681.278 473.08 681.144 472.192 681.416C471.546 681.548 471.064 681.826 470.823 681.965C470.582 682.104 470.29 682.434 470.118 682.693L469.894 684.67L468.722 684.865L468.408 682.235C468.623 682.191 468.985 681.982 469.467 681.704C469.854 681.4 470.215 681.191 470.672 681.008C471.033 680.799 471.585 680.642 472.136 680.484C473.195 679.953 474.343 679.853 475.483 680.158Z" fill="black"/>
<path d="M461.396 694.718C461.021 695.738 460.456 696.707 459.777 697.34C458.978 698.042 458.134 698.529 457.177 698.68C455.979 698.97 454.882 698.88 453.958 698.531C453.033 698.181 452.184 697.546 451.507 696.652C450.83 695.757 450.299 694.698 450.06 693.31C449.751 691.801 449.702 690.464 449.913 689.298C450.149 688.037 450.714 687.068 451.444 686.245C452.173 685.422 453.112 684.961 454.215 684.645C455.413 684.355 456.535 684.35 457.555 684.725C458.575 685.1 459.328 685.71 460.031 686.509C460.708 687.403 461.239 688.462 461.478 689.851L464.4 689.208L463.177 683.889L461.599 684.077L461.423 683.215L466.431 682.011L466.607 682.873L465.143 683.397L467.816 694.707L469.274 694.588L469.45 695.45L464.563 696.585L464.386 695.723L465.851 695.199L464.716 690.311L461.768 691.049C461.792 692.481 461.676 693.672 461.396 694.718ZM459.329 695.59C459.755 694.38 459.757 692.853 459.29 690.792C458.843 689.043 458.198 687.648 457.305 686.797C456.413 685.947 455.393 685.572 454.1 685.836C452.901 686.127 452.197 686.855 451.796 687.969C451.396 689.084 451.464 690.732 451.93 692.793C452.378 694.542 452.928 695.912 453.82 696.762C454.687 697.708 455.733 697.988 456.836 697.672C458.104 697.502 458.903 696.8 459.329 695.59Z" fill="black"/>
<path d="M440.122 693.906C439.558 693.348 438.735 692.618 437.868 691.673C437.235 690.994 436.862 690.487 436.533 690.195C436.204 689.903 435.944 689.731 435.754 689.68L435.063 689.597L434.887 688.735L437.137 688.319C437.448 688.301 437.802 688.498 438.201 688.91C438.6 689.323 439.233 690.001 439.91 690.896C440.752 691.936 441.385 692.615 441.948 693.173C442.416 693.706 442.866 693.929 443.297 693.841L444.47 693.645L443.532 688.403L441.884 688.471L441.707 687.609L446.734 686.715L446.885 687.672L445.446 688.101L447.473 699.543L449 699.545L449.151 700.502L444.245 701.326L444.145 700.179L445.61 699.655L444.697 694.318L443.093 694.601L440.272 700.567L441.825 700.474L441.976 701.431L437.475 702.263L437.324 701.305L438.764 700.876L441.826 694.77C441.325 694.738 440.711 694.37 440.122 693.906Z" fill="black"/>
<path d="M431.768 689.733C432.762 690.203 433.49 690.907 434.021 691.966C434.578 692.93 434.963 694.154 435.202 695.542C435.441 696.93 435.3 698.217 434.874 699.427C434.474 700.541 433.813 701.485 433.014 702.187C432.119 702.865 431.181 703.326 429.913 703.496C427.999 703.798 426.383 703.365 425.257 702.248C424.13 701.131 423.32 699.59 423.095 697.391C422.881 695.907 423.022 694.621 423.423 693.506C423.849 692.296 424.484 691.448 425.308 690.65C426.203 689.973 427.236 689.537 428.409 689.342C429.677 689.172 430.773 689.262 431.768 689.733ZM432.541 700.533C433.062 699.348 433.254 697.872 433.003 695.767C432.796 693.879 432.246 692.509 431.404 691.469C430.563 690.428 429.543 690.053 428.37 690.248C427.197 690.443 426.328 691.025 425.807 692.21C425.286 693.394 425.069 694.966 425.345 696.975C425.552 698.864 426.102 700.234 426.969 701.179C427.741 702.099 428.736 702.569 430.003 702.399C431.125 702.394 432.019 701.717 432.541 700.533Z" fill="black"/>
<path d="M420.394 703.288L421.896 703.385L421.952 704.316L419.442 704.56C419.037 704.554 418.485 704.711 417.864 704.749C417.217 704.881 416.812 704.874 416.596 704.918C414.923 705.081 413.637 704.94 412.858 704.426C412.079 703.912 411.661 703.189 411.536 702.136C411.454 701.3 411.684 700.444 412.052 699.83C412.42 699.216 413.169 698.703 414.056 698.432C412.909 698.532 411.933 698.372 411.154 697.858C410.375 697.344 409.983 696.526 409.928 695.594C409.853 694.352 410.133 693.306 410.983 692.414C411.834 691.521 413.203 690.972 415.282 690.816C415.713 690.727 416.119 690.734 416.62 690.766C417.551 690.711 418.172 690.673 418.362 690.724L420.872 690.48L420.928 691.412L419.42 691.72L420.394 703.288ZM415.408 691.868C414.165 691.942 413.252 692.309 412.789 692.898C412.231 693.461 412.027 694.221 412.178 695.178C412.234 696.11 412.556 696.808 413.075 697.151C413.595 697.493 414.45 697.723 415.502 697.597C416.745 697.523 417.581 697.441 417.917 697.327L417.461 691.807C417.081 691.705 416.46 691.742 415.408 691.868ZM416.965 698.6L415.913 698.726C415.076 698.807 414.379 699.129 414.036 699.649C413.693 700.168 413.489 700.928 413.571 701.765C413.652 702.602 413.879 703.274 414.399 703.616C414.918 703.959 415.678 704.163 416.73 704.038C417.161 703.949 417.662 703.982 418.119 703.798L418.55 703.71L418.112 698.5C417.802 698.519 417.491 698.537 416.965 698.6Z" fill="black"/>
<path d="M391.042 706.016L390.986 705.084L392.589 704.801L392.236 693.196L390.449 693.023L390.393 692.091L395.621 691.965L395.677 692.896L394.099 693.084L394.427 704.784L400.372 704.645L400.044 692.946L398.352 692.798L398.296 691.866L403.525 691.74L403.581 692.671L402.097 692.885L402.451 704.49L404.023 704.707L404.078 705.639L391.042 706.016Z" fill="black"/>
<path d="M386.633 692.816C387.482 693.451 388.184 694.25 388.595 695.379C389.031 696.412 389.201 697.68 389.224 699.112C389.153 700.519 388.917 701.78 388.326 702.844C387.736 703.908 387.006 704.731 386.042 705.287C385.078 705.844 383.975 706.16 382.853 706.165C380.92 706.156 379.476 705.463 378.47 704.277C377.489 702.996 377.015 701.341 377.005 699.097C376.982 697.665 377.338 696.335 377.929 695.271C378.52 694.207 379.275 693.289 380.239 692.732C381.203 692.176 382.306 691.86 383.523 691.88C384.74 691.901 385.785 692.181 386.633 692.816ZM385.879 703.614C386.565 702.576 386.972 701.055 387.006 699.027C386.989 697.189 386.681 695.68 386.055 694.596C385.428 693.511 384.459 692.946 383.243 692.926C382.026 692.905 381.062 693.462 380.376 694.5C379.69 695.539 379.258 697.155 379.223 699.183C379.215 701.115 379.454 702.504 380.175 703.614C380.801 704.698 381.77 705.263 382.987 705.284C384.16 705.089 385.098 704.627 385.879 703.614Z" fill="black"/>
<path d="M371.127 696.708C371.49 694.971 371.916 693.762 372.551 692.913C372.869 692.489 373.16 692.16 373.522 691.951C373.883 691.742 374.314 691.654 374.72 691.661C375.316 691.719 375.721 691.725 376.007 691.802L376.005 693.329C375.72 693.253 375.219 693.22 374.623 693.163C374.433 693.112 374.218 693.156 373.977 693.295C373.736 693.434 373.59 693.599 373.444 693.763C372.346 695.201 371.746 698.198 371.456 702.703L371.359 704.205L373.5 704.575L373.461 705.482L362.638 704.822L362.677 703.916L364.445 703.779L365.213 692.169L363.357 691.875L363.396 690.969L369.093 691.375L369.054 692.281L367.095 692.368L366.327 703.977L370.142 704.185L370.29 702.493C370.565 700.326 370.789 698.349 371.127 696.708Z" fill="black"/>
<path d="M359.249 703.405L360.769 703.812L360.635 704.693L351.13 703.674L351.203 700.74L352.299 700.83L352.627 702.649L357.246 703.276L357.835 698.035L354.762 697.721L354.355 699.242L353.353 699.177L353.783 694.912L354.784 694.977L354.852 696.625L357.9 697.034L358.471 691.483L353.179 691.084L351.973 693.307L350.883 692.811L351.749 689.58L362.04 690.708L361.906 691.589L360.378 691.587L359.249 703.405Z" fill="black"/>
<path d="M343.812 701.713L346.981 702.053L348.189 698.302L349.355 698.513L348.342 703.436L336.797 701.667L337.31 696.711L338.475 696.922L338.528 700.908L341.74 701.464L343.44 689.798L340.849 689.206L340.983 688.325L348.029 689.398L347.895 690.279L345.487 690.143L343.812 701.713Z" fill="black"/>
<path d="M330.483 692.54L331.363 692.674C331.7 692.56 332.112 692.161 332.455 691.642C332.798 691.123 333.381 690.464 333.896 689.685C334.41 688.906 334.873 688.318 335.191 687.893C335.508 687.469 335.749 687.33 335.939 687.381L338.461 687.853L338.327 688.734L337.585 688.841C337.37 688.885 337.154 688.929 336.862 689.258C336.596 689.492 336.158 689.986 335.695 690.575C335.085 691.328 334.622 691.917 334.209 692.316C333.772 692.81 333.41 693.018 332.954 693.202C333.758 693.621 334.321 694.179 334.644 694.877C334.966 695.574 335.047 696.411 334.888 697.387C334.601 698.838 333.941 699.781 333.028 700.148C332.02 700.489 330.777 700.563 329.136 700.225C328.756 700.124 328.376 700.022 327.806 699.869C327.236 699.716 326.76 699.589 326.475 699.512L323.858 699.015L323.993 698.134L325.59 698.256L327.834 686.839L326.149 686.285L326.283 685.405L331.707 686.45L331.573 687.331L329.786 687.158L328.893 692.012L330.483 692.54ZM327.94 698.988C328.51 699.141 328.985 699.268 329.365 699.37C330.341 699.53 331.057 699.518 331.66 699.17C332.262 698.822 332.631 698.208 332.816 697.137C332.975 696.161 332.894 695.325 332.451 694.697C332.008 694.069 331.394 693.7 330.444 693.446C329.468 693.286 328.803 693.108 328.492 693.127L327.395 698.74L327.94 698.988Z" fill="black"/>
<path d="M317.359 696.662L320.546 697.312L322.04 693.638L323.275 693.969L321.786 698.765L310.496 696.045L311.415 691.097L312.555 691.402L312.202 695.382L315.338 696.222L318.013 684.716L315.473 683.934L315.702 683.079L322.691 684.747L322.461 685.603L320.009 685.251L317.359 696.662Z" fill="black"/>
<path d="M305.356 681.019C306.153 681.844 306.589 682.878 306.784 684.05C306.979 685.223 306.838 686.509 306.456 687.935C306.1 689.265 305.389 690.399 304.564 691.196C303.713 692.089 302.654 692.62 301.551 692.936C300.353 693.226 299.257 693.136 298.021 692.805C297.071 692.55 296.077 692.08 294.823 691.438L294.278 691.19L295.429 688.036L296.664 688.367L296.433 690.749C296.572 690.99 296.832 691.162 297.187 691.359C297.541 691.556 298.086 691.803 298.656 691.956C299.417 692.16 300.133 692.148 300.9 691.946C301.572 691.719 302.32 691.206 302.835 690.428C303.444 689.674 303.914 688.68 304.22 687.539C304.525 686.399 304.71 685.328 304.68 684.301C304.649 683.275 304.378 682.387 303.96 681.664C303.543 680.941 302.859 680.452 301.909 680.198C301.244 680.019 300.768 679.892 300.363 679.885C299.957 679.878 299.621 679.992 299.38 680.131L298.162 681.638L297.072 681.142L298.235 678.704C298.52 678.78 298.925 678.787 299.426 678.819C299.927 678.852 300.332 678.858 300.738 678.865C301.144 678.872 301.714 679.025 302.284 679.178C303.519 679.509 304.583 680.099 305.356 681.019Z" fill="black"/>
<path d="M286.916 689.014L287.24 688.184L289.071 688.573L292.155 679.723L289.98 681.381L282.768 685.866L282.641 686.341L284.18 687.059L283.856 687.889L279.016 686.185L279.34 685.355L280.791 685.642L284.556 674.631L283.112 673.939L283.436 673.109L288.371 674.839L288.047 675.669L286.406 675.331L283.296 684.276L285.352 682.687L292.778 678.159L292.957 677.493L291.322 676.75L291.647 675.92L296.581 677.65L296.257 678.48L294.711 678.167L290.946 689.178L292.295 689.845L291.971 690.674L286.916 689.014Z" fill="black"/>
<path d="M267.823 681.963L269.476 677.313L270.686 677.739L269.788 681.471L273.532 683.085L277.892 672.133L274.909 670.722L275.233 669.892L282.062 672.537L281.738 673.367L279.742 672.832L275.527 683.62L277.301 684.604L276.977 685.434L267.823 681.963Z" fill="black"/>
<path d="M265.284 679.653L266.488 680.485L266.163 681.315L261.52 679.256L261.844 678.426L263.365 678.833L265.399 674.285L259.381 671.654L257.347 676.202L258.646 677.06L258.321 677.889L253.773 675.856L254.098 675.026L255.523 675.408L260.213 664.747L258.889 663.985L259.214 663.156L263.762 665.189L263.437 666.019L261.942 665.516L259.686 670.514L265.704 673.145L267.96 668.147L266.541 667.36L266.865 666.53L271.603 668.614L271.279 669.444L269.879 668.967L265.284 679.653Z" fill="black"/>
<path d="M247.572 672.768L245.773 671.879L247.482 658.28L246.538 657.62L246.958 656.816L251.36 659.014L250.94 659.818L249.445 659.316L248.992 662.148L253.844 664.568L255.836 662.454L254.443 661.572L254.862 660.767L258.815 662.743L258.395 663.547L257.28 663.147L247.572 672.768ZM247.817 669.574L247.479 671.215L248.647 669.899L253.019 665.366L248.807 663.219L247.817 669.574Z" fill="black"/>
<path d="M240.263 658.994C241.335 657.652 242.306 656.69 243.175 656.108C243.657 655.83 243.993 655.716 244.424 655.628C244.83 655.635 245.21 655.736 245.66 655.959C246.204 656.207 246.534 656.499 246.793 656.67L246.221 658.045C245.961 657.873 245.607 657.676 244.993 657.308C244.828 657.162 244.638 657.111 244.422 657.155C244.207 657.199 243.991 657.243 243.75 657.382C242.209 658.192 240.33 660.642 238.044 664.613L237.282 665.937L239.074 667.232L238.655 668.036L229.269 662.771L229.688 661.967L231.348 662.615L237.032 652.425L235.474 651.396L235.893 650.592L240.954 653.374L240.535 654.178L238.805 653.409L233.146 663.505L236.434 665.302L237.247 663.788C238.136 661.99 239.19 660.337 240.263 658.994Z" fill="black"/>
<path d="M212.214 652.294L212.728 651.515L214.363 652.258L220.566 642.411L219.224 641.338L219.738 640.559L224.342 643.524L223.828 644.303L222.289 643.585L216.085 653.433L217.427 654.505L216.913 655.284L212.214 652.294ZM225.027 653.893C223.729 653.036 222.957 652.116 222.616 651.108C222.275 650.1 222.46 649.029 223.171 647.896C223.907 646.667 224.897 646.016 226.07 645.821C227.242 645.625 228.478 645.957 229.801 646.719C229.966 646.865 230.156 646.915 230.321 647.061C230.485 647.207 230.65 647.353 230.84 647.404C231.429 647.868 231.948 648.211 232.372 648.528L234.544 649.925L234.03 650.704L232.586 650.011L226.382 659.859L227.535 660.88L227.02 661.659L222.486 658.815L223 658.036L224.73 658.805L227.034 655.144L225.027 653.893ZM230.37 648.399C230.205 648.253 229.946 648.081 229.496 647.859C228.622 647.319 227.767 647.09 226.999 647.292C226.232 647.494 225.579 648.032 224.919 648.975C224.379 649.849 224.175 650.61 224.377 651.377C224.579 652.144 225.117 652.797 225.991 653.337L227.644 654.391L231.003 649.078C230.794 648.716 230.629 648.57 230.37 648.399Z" fill="black"/>
<path d="M205.776 646.29L206.808 647.382L206.293 648.161L202.216 645.133L202.73 644.354L204.149 645.141L207.177 641.064L201.896 637.204L198.868 641.282L199.899 642.373L199.385 643.152L195.402 640.15L195.917 639.371L197.266 640.038L204.153 630.679L203.096 629.683L203.61 628.904L207.688 631.932L207.174 632.711L205.85 631.949L202.651 636.286L207.932 640.146L211.131 635.808L209.909 634.666L210.424 633.887L214.597 636.94L214.082 637.719L212.759 636.957L205.776 646.29Z" fill="black"/>
<path d="M189.938 635.833L188.362 634.494L192.947 621.565L192.175 620.645L192.758 619.986L196.621 623.058L196.011 623.812L194.713 622.955L193.69 625.634L197.951 629.119L200.412 627.537L199.285 626.42L199.869 625.762L203.307 628.517L202.723 629.175L201.659 628.584L189.938 635.833ZM190.943 632.843L190.32 634.408L191.722 633.357L196.936 629.865L193.264 626.844L190.943 632.843Z" fill="black"/>
<path d="M178.835 624.812L180.145 626.385L179.561 627.043L175.896 623.617L179.657 615.661L180.839 613.533L178.834 614.931L171.243 619.314L167.647 616.008L168.231 615.35L169.928 616.619L176.746 607.14L175.67 605.833L176.254 605.175L180.154 608.868L179.57 609.526L178.202 608.549L173.149 615.241L170.953 618.116L173.363 616.725L182.349 611.697L183.242 612.547L179.397 621.194L177.79 624.532L180.48 622.095L186.78 616.449L185.514 615.091L186.098 614.433L189.694 617.739L189.11 618.398L187.837 617.445L178.835 624.812Z" fill="black"/>
<path d="M162.507 610.862L161.077 609.358L167.201 597.147L166.549 596.157L167.228 595.524L170.652 599.09L169.974 599.723L168.701 598.771L167.297 601.349L171.146 605.232L173.746 603.891L172.765 602.61L173.444 601.977L176.564 605.156L175.886 605.789L174.942 605.129L162.507 610.862ZM163.892 607.974L163.079 609.488L164.62 608.678L170.277 605.814L166.922 602.369L163.892 607.974Z" fill="black"/>
<path d="M156.3 602.476L157.091 603.707L156.412 604.34L154.773 602.474C154.444 602.182 154.14 601.796 153.811 601.504C153.317 601.066 152.848 600.533 152.45 600.12C151.279 598.788 150.678 597.609 150.648 596.582C150.617 595.555 151.157 594.681 152.128 593.719C152.902 593.111 153.65 592.599 154.487 592.518C155.349 592.341 156.23 592.475 157.06 592.8C157.889 593.124 158.643 593.733 159.345 594.533C159.58 594.799 159.814 595.065 160.048 595.332C160.282 595.598 160.421 595.839 160.516 595.865L163.593 593.124L162.005 591.069L162.684 590.436L166.76 594.991L166.081 595.624L164.929 594.603L156.3 602.476ZM158.641 595.26C158.008 594.582 157.204 594.162 156.418 594.054C155.632 593.945 154.599 594.381 153.628 595.343C152.829 596.046 152.435 596.755 152.447 597.471C152.458 598.187 152.85 599.005 153.553 599.805C153.787 600.071 154.116 600.363 154.445 600.655C154.61 600.801 154.775 600.947 154.844 601.068L159.786 596.688C159.552 596.421 159.179 595.914 158.641 595.26Z" fill="black"/>
<path d="M156.6 584.63C156.795 585.803 156.61 586.874 156.019 587.938C155.524 589.027 154.648 590.015 153.582 590.951C152.516 591.888 151.362 592.394 150.19 592.589C149.017 592.784 147.8 592.763 146.711 592.268C145.596 591.867 144.652 591.207 143.81 590.166C143.203 589.393 142.551 588.403 141.951 587.224L141.698 586.647L144.381 584.615L145.153 585.535L143.643 587.371C143.687 587.587 143.705 587.897 143.889 588.354C144.097 588.715 144.376 589.197 144.749 589.705C145.287 590.358 145.901 590.727 146.661 590.93C147.422 591.134 148.258 591.053 149.146 590.781C150.034 590.51 150.998 589.953 151.917 589.181C152.837 588.409 153.542 587.681 154.081 586.807C154.621 585.933 154.945 585.103 154.959 584.292C154.973 583.481 154.676 582.688 154.163 581.94C153.79 581.433 153.366 581.115 153.037 580.823C152.707 580.531 152.422 580.455 152.112 580.473L150.216 581.086L149.564 580.097L151.854 578.775C152.018 578.921 152.348 579.213 152.772 579.53C153.196 579.847 153.551 580.044 153.88 580.336C154.209 580.628 154.513 581.015 155.007 581.453C155.969 582.424 156.5 583.483 156.6 584.63Z" fill="black"/>
<path d="M126.126 566.075L126.874 565.563L128.02 566.99L135.84 561.752L133.096 561.729L124.662 560.895L124.275 561.199L124.989 562.715L124.241 563.227L121.426 558.908L122.174 558.395L123.206 559.487L132.885 553.015L132.145 551.594L132.893 551.082L135.804 555.427L135.055 555.939L133.979 554.632L126.038 559.94L128.592 559.911L137.217 560.796L137.819 560.449L137.01 558.907L137.758 558.395L140.668 562.74L139.92 563.252L138.914 562.066L129.235 568.538L129.88 569.933L129.131 570.445L126.126 566.075Z" fill="black"/>
<path d="M119.503 555.439C119.104 555.026 118.801 554.639 118.472 554.348C118.142 554.056 118.029 553.72 117.794 553.453C117.029 552.128 116.619 550.999 116.588 549.972C116.558 548.946 117.047 548.262 118.011 547.705C118.854 547.218 119.716 547.042 120.571 547.271C121.427 547.5 122.111 547.989 122.744 548.668C122.187 547.704 121.941 546.721 122.17 545.866C122.399 545.011 122.888 544.327 123.637 543.814C124.747 543.093 125.919 542.898 126.939 543.273C127.959 543.648 128.947 544.524 129.946 546.116C130.294 546.719 130.642 547.321 130.8 547.873C130.957 548.424 131.141 548.881 131.254 549.217C131.368 549.553 131.412 549.768 131.387 549.863L128.476 551.222L127.989 550.379L129.759 548.714C129.747 547.998 129.45 547.206 128.868 546.337C128.451 545.614 127.862 545.15 127.267 545.092C126.671 545.035 125.809 545.211 124.965 545.698C124.337 546.141 123.899 546.635 123.626 547.275C123.448 547.94 123.624 548.802 124.206 549.671L124.927 550.781L124.059 551.363L123.502 550.399C123.224 549.917 122.894 549.625 122.47 549.308C122.046 548.99 121.571 548.863 121.07 548.831C120.57 548.798 120.018 548.956 119.416 549.304C118.693 549.721 118.35 550.241 118.197 550.811C118.139 551.406 118.271 552.053 118.689 552.776C118.967 553.258 119.271 553.645 119.626 553.842C119.955 554.134 120.24 554.21 120.455 554.166L122.136 553.598L122.787 554.587L120.421 556.194C120.231 556.143 119.997 555.877 119.503 555.439Z" fill="black"/>
<path d="M112.156 541.044L112.68 542.508L111.862 542.9L110.636 540.636C110.427 540.275 110.149 539.793 109.775 539.285C109.402 538.778 109.193 538.416 109.054 538.175C108.245 536.634 107.955 535.436 107.994 534.53C108.128 533.649 108.617 532.965 109.581 532.409C110.399 532.017 111.166 531.815 111.926 532.019C112.712 532.127 113.396 532.616 113.934 533.27C113.403 532.21 113.157 531.228 113.386 530.373C113.615 529.517 114.104 528.833 115.042 528.372C116.127 527.746 117.274 527.646 118.363 528.141C119.478 528.542 120.51 529.633 121.528 531.536C121.737 531.897 121.92 532.354 122.129 532.715C122.521 533.533 122.774 534.11 122.938 534.256L124.095 536.4L123.277 536.792L122.392 535.536L112.156 541.044ZM115.154 535.939L114.692 535.001C114.275 534.278 113.806 533.745 113.141 533.566C112.476 533.388 111.829 533.521 111.011 533.912C110.288 534.33 109.755 534.798 109.603 535.368C109.45 535.939 109.652 536.706 110.113 537.644C110.322 538.006 110.6 538.488 110.809 538.849L111.018 539.211L115.641 536.783C115.641 536.783 115.432 536.421 115.154 535.939ZM120.805 531.953C120.179 530.869 119.546 530.19 118.811 529.891C118.076 529.592 117.335 529.699 116.491 530.186C115.648 530.673 115.115 531.141 115.032 531.832C114.949 532.523 115.055 533.265 115.612 534.228C116.238 535.313 116.56 536.01 116.769 536.372L121.659 533.71C121.52 533.469 121.267 532.892 120.805 531.953Z" fill="black"/>
<path d="M103.655 527.154L102.732 525.277L112.345 515.63L112.029 514.527L112.847 514.135L115.016 518.587L114.198 518.979L113.337 517.628L111.18 519.596L113.532 524.504L116.403 524.051L115.905 522.492L116.723 522.1L118.613 526.069L117.795 526.461L117.143 525.472L103.655 527.154ZM105.819 524.78L104.486 525.951L106.211 525.598L112.454 524.725L110.355 520.394L105.819 524.78Z" fill="black"/>
<path d="M111.032 511.408C110.847 512.479 110.351 513.568 109.621 514.391C108.891 515.214 107.756 516.03 106.481 516.606C105.207 517.181 103.939 517.35 102.748 517.235C101.556 517.119 100.442 516.719 99.498 516.059C98.5545 515.398 97.8079 514.383 97.3022 513.229C96.9357 512.316 96.6202 511.213 96.3556 509.92L96.2233 509.273L99.3935 508.086L99.8991 509.24L97.8948 510.638C97.8438 510.828 97.837 511.234 97.9252 511.665C98.0134 512.096 98.1712 512.647 98.424 513.224C98.7464 513.922 99.1893 514.55 99.8986 514.944C100.608 515.337 101.368 515.541 102.3 515.485C103.232 515.429 104.309 515.209 105.463 514.703C106.497 514.267 107.461 513.71 108.26 513.008C109.06 512.305 109.548 511.622 109.778 510.766C110.102 509.936 110.02 509.1 109.628 508.282C109.376 507.705 109.097 507.223 108.863 506.956C108.629 506.69 108.395 506.423 108.015 506.321L105.987 506.287L105.671 505.184L108.283 504.56C108.422 504.801 108.631 505.162 108.935 505.549C109.238 505.936 109.568 506.228 109.776 506.59C109.985 506.951 110.263 507.433 110.516 508.01C111.022 509.164 111.217 510.337 111.032 511.408Z" fill="black"/>
<path d="M94.841 499.226C93.7701 499.041 92.7757 498.571 92.0222 497.962C91.2688 497.352 90.6868 496.483 90.3457 495.475C89.9351 494.347 89.8097 493.295 90.0898 492.249C90.3699 491.204 90.8146 490.304 91.614 489.602C92.4388 488.804 93.4028 488.248 94.6519 487.768C96.1165 487.243 97.3842 487.074 98.601 487.094C99.7923 487.21 100.907 487.61 101.756 488.245C102.604 488.88 103.281 489.774 103.717 490.808C104.128 491.937 104.228 493.084 104.043 494.155C103.858 495.225 103.318 496.099 102.493 496.897C101.668 497.694 100.679 498.346 99.4299 498.826L100.504 501.66L105.595 499.765L105.217 498.136L106.105 497.865L107.861 502.715L106.973 502.986L106.233 501.566L95.3784 505.584L95.6871 507.092L94.7995 507.364L93.018 502.608L93.9056 502.337L94.6454 503.757L99.4007 501.976L98.3268 499.142C97.1286 499.432 95.8863 499.506 94.841 499.226ZM93.7024 497.393C94.9378 497.724 96.5161 497.536 98.4627 496.734C100.168 496.07 101.399 495.28 102.18 494.266C102.96 493.253 103.145 492.183 102.735 491.054C102.324 489.925 101.476 489.291 100.335 488.985C99.1948 488.679 97.5911 488.963 95.6699 489.67C93.9643 490.334 92.7339 491.124 91.9786 492.042C91.1979 493.055 91.0383 494.031 91.4489 495.16C91.7389 496.358 92.562 497.088 93.7024 497.393Z" fill="black"/>
<path d="M93.0471 478.171C93.5359 477.487 94.1707 476.639 95.0465 475.651C95.6303 474.993 96.0682 474.499 96.3856 474.075C96.6775 473.745 96.7539 473.46 96.8048 473.27L96.793 472.554L97.6806 472.283L98.4068 474.514C98.5459 474.755 98.3235 475.205 98.0062 475.629C97.6633 476.148 97.0794 476.807 96.2546 477.604C95.3788 478.592 94.6745 479.32 94.2111 479.909C93.7478 480.498 93.6205 480.973 93.7341 481.309L94.0497 482.412L99.1597 480.827L98.9019 479.129L99.7895 478.857L101.33 483.752L100.442 484.023L99.7977 482.628L88.6901 486.069L88.9037 487.552L88.0161 487.823L86.5452 483.05L87.4328 482.778L88.0776 484.173L93.1876 482.588L92.6888 481.029L86.3979 479.038L86.6812 480.641L85.7936 480.913L84.4363 476.475L85.3239 476.203L85.9941 477.503L92.4241 479.736C92.3105 479.4 92.5837 478.76 93.0471 478.171Z" fill="black"/>
<path d="M96.0366 469.295C95.6614 470.315 95.0267 471.164 94.1322 471.841C93.2378 472.518 92.0583 473.118 90.7397 473.478C89.326 473.812 88.0837 473.887 86.9179 473.676C85.752 473.466 84.783 472.901 83.96 472.171C83.137 471.441 82.5804 470.477 82.2903 469.279C81.7729 467.409 81.9902 465.837 82.9679 464.469C83.92 463.197 85.3915 462.267 87.4772 461.705C88.8909 461.371 90.2282 461.322 91.3941 461.533C92.5599 461.743 93.6239 462.334 94.447 463.064C95.27 463.793 95.8266 464.757 96.1167 465.955C96.4067 467.154 96.4117 468.275 96.0366 469.295ZM85.3805 471.431C86.5905 471.857 88.1433 471.764 90.1086 471.272C91.9533 470.85 93.2788 470.084 94.1291 469.192C94.9794 468.299 95.285 467.159 94.9694 466.056C94.6793 464.857 93.8563 464.128 92.6463 463.701C91.4364 463.275 89.7885 463.343 87.8232 463.835C85.9785 464.258 84.653 465.023 83.8027 465.915C82.9524 466.808 82.6723 467.853 82.9624 469.051C83.468 470.206 84.2656 471.03 85.3805 471.431Z" fill="black"/>
<path d="M81.1864 459.714L81.2796 461.267L80.4175 461.443L79.8627 458.952C79.7745 458.521 79.6168 457.969 79.459 457.418C79.3012 456.866 79.1179 456.41 79.0993 456.099C78.7465 454.375 78.7669 453.158 79.0911 452.328C79.4154 451.498 80.1638 450.986 81.1464 450.74C82.0086 450.564 82.7943 450.672 83.5291 450.971C84.2384 451.365 84.8018 451.923 85.1938 452.741C84.9037 451.543 84.9428 450.637 85.362 449.832C85.7813 449.028 86.5297 448.516 87.4869 448.365C88.6851 448.075 89.8509 448.285 90.769 449.04C91.7125 449.701 92.4523 451.121 92.8492 453.061C92.9375 453.492 93.0257 453.923 93.0188 454.329C93.1698 455.286 93.3276 455.837 93.3717 456.053L93.9519 458.449L93.0897 458.626L92.5655 457.161L81.1864 459.714ZM85.4311 455.657L85.1851 454.674C85.0087 453.812 84.6608 453.21 84.0465 452.841C83.5273 452.498 82.7416 452.39 81.854 452.661C80.9918 452.838 80.3893 453.185 80.1415 453.73C79.8937 454.275 79.785 455.061 80.0055 456.138C80.0937 456.569 80.182 457 80.3652 457.457L80.4789 457.793L85.5566 456.709C85.6075 456.519 85.4939 456.183 85.4311 455.657ZM91.8666 453.307C91.5765 452.109 91.1846 451.291 90.5007 450.802C89.9118 450.339 89.1261 450.23 88.1435 450.476C87.1863 450.627 86.5584 451.07 86.3105 451.614C85.9677 452.134 85.9286 453.04 86.1491 454.118C86.4392 455.316 86.6156 456.178 86.7293 456.514L92.1431 455.316C92.2194 455.031 92.0871 454.385 91.8666 453.307Z" fill="black"/>
<path d="M74.7247 430.991L75.6818 430.84L76.1806 432.399L87.6665 430.588L87.6243 428.845L88.5814 428.694L89.4244 433.911L88.4673 434.062L88.0635 432.528L76.5776 434.339L77.5274 440.297L89.1084 438.511L89.0661 436.769L90.0233 436.618L90.7712 441.809L89.8141 441.96L89.3848 440.521L77.8989 442.332L77.8716 443.955L76.9145 444.106L74.7247 430.991Z" fill="black"/>
<path d="M87.3568 424.903C86.9121 425.802 86.0873 426.6 85.1233 427.156C84.1593 427.713 82.9357 428.098 81.4779 428.216C80.0201 428.335 78.7337 428.194 77.6188 427.794C76.5038 427.393 75.5603 426.733 74.8833 425.838C74.2062 424.944 73.7701 423.91 73.6701 422.763C73.4632 420.874 73.8961 419.259 75.0129 418.132C76.1297 417.005 77.7403 416.316 79.9397 416.091C81.3975 415.972 82.6838 416.113 83.7988 416.514C84.9137 416.914 85.8572 417.575 86.6293 418.494C87.3064 419.389 87.7424 420.422 87.8424 421.57C87.9866 422.932 87.8015 424.003 87.3568 424.903ZM76.5125 425.46C77.6715 426.076 79.1734 426.173 81.2524 426.017C83.1412 425.81 84.4853 425.355 85.5257 424.514C86.5406 423.767 87.0108 422.773 86.8412 421.505C86.7411 420.358 86.0641 419.463 84.905 418.847C83.746 418.231 82.1491 418.109 80.1652 418.29C78.2763 418.497 76.8372 418.926 75.8918 419.793C74.8769 420.54 74.5018 421.56 74.6714 422.828C74.7459 424.07 75.423 424.964 76.5125 425.46Z" fill="black"/>
<path d="M81.4485 410.078C83.1405 410.226 84.4964 410.488 85.3958 410.932C85.8455 411.155 86.1747 411.447 86.4089 411.713C86.6176 412.075 86.7313 412.411 86.8195 412.842C86.8568 413.463 86.8499 413.868 86.7735 414.153L85.2903 414.367C85.2716 414.057 85.2785 413.651 85.2667 412.935C85.2225 412.719 85.1784 412.504 85.0138 412.358C84.8492 412.212 84.6846 412.066 84.425 411.894C82.9113 411.081 79.8379 410.767 75.2745 411.072L73.8167 411.191L73.7571 413.314L72.8254 413.37L72.1475 402.595L73.0792 402.539L73.432 404.264L85.0434 403.504L85.1217 401.692L86.0534 401.636L86.4585 407.347L85.5268 407.402L85.2249 405.488L73.6389 406.152L73.8371 409.974L75.485 409.906C77.8236 409.922 79.7565 409.931 81.4485 410.078Z" fill="black"/>
<path d="M73.2798 399.13L73.0624 400.701L72.1307 400.757L71.933 391.231L74.8741 390.899L74.9045 391.926L73.1293 392.469L73.0984 397.146L78.3271 397.019L78.2357 393.939L76.6642 393.721L76.6337 392.695L80.9307 392.624L80.9612 393.651L79.3574 393.934L79.3283 397.084L84.8676 396.938L84.5507 391.658L82.1562 390.711L82.4618 389.571L85.6997 390.031L85.8838 400.368L84.9521 400.424L84.7639 398.846L73.2798 399.13Z" fill="black"/>
<path d="M73.0641 383.59L73.13 386.765L77.0078 387.498L76.9873 388.715L72.0064 388.297L72.2739 376.655L77.287 376.573L77.2666 377.79L73.3429 378.368L73.1933 381.587L84.9556 381.785L85.168 379.092L86.0742 379.131L85.9073 386.216L85.0011 386.177L84.852 383.693L73.0641 383.59Z" fill="black"/>
<path d="M80.49 369.18L80.4509 370.087C80.6596 370.448 80.9888 370.74 81.6032 371.108C82.1224 371.451 82.8318 371.845 83.7312 372.29C84.6306 372.734 85.2449 373.103 85.6946 373.325C86.1443 373.547 86.3785 373.814 86.3275 374.004L86.1661 376.507L85.2599 376.468L85.153 375.726C85.1089 375.511 84.9443 375.365 84.7101 375.098C84.3555 374.902 83.9312 374.584 83.2474 374.095C82.443 373.676 81.8541 373.213 81.3349 372.87C80.8156 372.527 80.5118 372.14 80.3031 371.779C79.9789 372.608 79.5156 373.197 78.7671 373.71C78.0441 374.127 77.2771 374.329 76.2758 374.264C74.7739 374.168 73.7795 373.697 73.2229 372.733C72.6663 371.769 72.4967 370.502 72.6191 368.905C72.6259 368.499 72.7277 368.119 72.7855 367.523C72.8432 366.928 72.9706 366.453 72.9519 366.142L73.1643 363.449L74.0705 363.488L74.1637 365.041L85.7733 365.809L86.0416 364.047L86.9478 364.086L86.5927 369.593L85.6864 369.554L85.6696 367.716L80.6633 367.393L80.49 369.18ZM73.7172 367.467C73.5644 368.038 73.5321 368.538 73.5253 368.944C73.4607 369.945 73.5676 370.687 74.0359 371.22C74.5043 371.753 75.144 372.026 76.2403 372.116C77.2416 372.181 78.0087 371.979 78.6366 371.536C79.2646 371.093 79.4683 370.333 79.6279 369.357C79.6925 368.356 79.7502 367.76 79.662 367.329L73.965 366.923L73.7172 367.467Z" fill="black"/>
<path d="M74.6614 356.72L74.4167 359.914L78.2181 360.933L78.1026 362.124L73.1285 361.3L74.3972 349.723L79.4035 350.046L79.2881 351.237L75.3712 351.41L74.911 354.648L86.5833 355.942L87.0808 353.325L87.9616 353.46L87.1735 360.582L86.2927 360.448L86.3337 358.014L74.6614 356.72Z" fill="black"/>
<path d="M88.7856 342.782C88.0558 343.605 87.0663 344.256 85.9632 344.572C84.8601 344.887 83.5228 344.936 82.1669 344.675C80.8109 344.413 79.6009 343.987 78.6829 343.232C77.7648 342.477 76.9928 341.557 76.5822 340.428C76.1716 339.3 76.0715 338.153 76.3075 336.892C76.4671 335.916 76.7727 334.775 77.2938 333.591L77.5417 333.046L80.8237 333.722L80.5877 334.983L78.1287 335.037C77.9827 335.202 77.8113 335.461 77.5889 335.911C77.392 336.266 77.2392 336.836 77.1815 337.431C77.0728 338.217 77.1797 338.959 77.5021 339.656C77.8244 340.354 78.3878 340.912 79.2618 341.452C80.0407 341.966 81.0861 342.246 82.347 342.482C83.5128 342.693 84.5395 342.662 85.5917 342.537C86.5489 342.386 87.462 342.019 88.1154 341.482C88.7688 340.944 89.1626 340.234 89.3222 339.258C89.4054 338.568 89.4377 338.067 89.419 337.757C89.4004 337.446 89.2867 337.11 89.078 336.749L87.4251 335.694L87.7307 334.554L90.2457 335.432C90.1693 335.717 90.283 336.053 90.3457 336.579C90.4339 337.01 90.4017 337.511 90.4899 337.942C90.5781 338.373 90.4507 338.848 90.3675 339.539C90.0365 340.774 89.5409 341.864 88.7856 342.782Z" fill="black"/>
<path d="M78.5522 325.474L79.4329 325.608L79.2597 327.395L88.4152 329.339L86.4909 327.397L81.1372 320.768L80.662 320.641L80.1341 322.231L79.2533 322.097L80.2924 317.079L81.1731 317.213L81.0763 318.715L92.443 321.149L92.9455 319.654L93.8008 319.883L92.7363 324.997L91.881 324.767L92.0288 323.076L82.6832 321.081L84.538 322.902L89.9612 329.651L90.6264 329.83L91.1798 328.145L92.0606 328.279L90.9961 333.392L90.1153 333.258L90.2377 331.661L78.8709 329.226L78.3939 330.626L77.5131 330.492L78.5522 325.474Z" fill="black"/>
<path d="M83.1327 305.719L87.9353 306.802L87.6042 308.037L83.8402 307.64L82.6757 311.606L94.1306 314.471L95.161 311.386L96.0163 311.615L94.227 318.673L93.3717 318.444L93.7164 316.398L82.4515 313.583L81.7521 315.433L80.8968 315.203L83.1327 305.719Z" fill="black"/>
<path d="M85.1132 302.888L84.4462 304.237L83.5908 304.008L85.1051 299.117L85.9604 299.347L85.743 300.918L90.5388 302.407L92.435 296.09L87.6392 294.602L86.9721 295.951L86.1168 295.722L87.6055 290.926L88.4609 291.155L88.269 292.632L99.3811 296.016L99.9531 294.642L100.808 294.871L99.3197 299.667L98.4644 299.438L98.7768 297.892L93.6008 296.301L91.7047 302.617L96.8806 304.208L97.4781 302.738L98.3334 302.968L96.8192 307.858L95.9639 307.629L96.2508 306.178L85.1132 302.888Z" fill="black"/>
<path d="M89.6478 284.445L90.3726 282.5L104.024 282.491L104.614 281.427L105.444 281.751L103.791 286.401L102.961 286.077L103.274 284.531L100.339 284.458L98.5586 289.583L100.844 291.316L101.537 289.872L102.367 290.196L100.936 294.396L100.106 294.072L100.316 292.906L89.6478 284.445ZM92.918 284.405L91.226 284.257L92.6888 285.26L97.6847 289.043L99.2871 284.583L92.918 284.405Z" fill="black"/>
<path d="M102.543 275.474C104.031 276.382 105.139 277.188 105.747 277.962C106.051 278.349 106.234 278.805 106.347 279.141C106.436 279.572 106.334 279.953 106.232 280.333C105.984 280.877 105.787 281.232 105.616 281.492L104.216 281.015C104.387 280.755 104.515 280.28 104.762 279.735C104.813 279.545 104.89 279.26 104.82 279.139C104.776 278.924 104.637 278.683 104.498 278.442C103.447 277.04 100.826 275.421 96.5813 273.774L95.2067 273.202L94.1968 275.071L93.367 274.746L97.378 264.719L98.2078 265.043L97.7495 266.754L108.512 271.063L109.35 269.455L110.18 269.779L108.038 275.113L107.208 274.788L107.718 272.888L96.9551 268.578L95.5123 272.062L97.0769 272.685C99.2304 273.771 101.055 274.566 102.543 275.474Z" fill="black"/>
<path d="M105.553 259.677C106.22 258.328 106.975 257.41 108.009 256.974C109.043 256.538 110.044 256.603 111.228 257.124C112.482 257.765 113.375 258.616 113.665 259.814C113.981 260.917 113.84 262.203 113.173 263.553C113.122 263.743 112.976 263.907 112.925 264.097C112.779 264.262 112.728 264.452 112.556 264.712C112.188 265.326 111.94 265.871 111.692 266.415L110.676 268.689L109.871 268.27L110.374 266.775L99.7897 261.8L98.9325 263.098L98.1282 262.679L100.333 257.871L101.137 258.291L100.559 260.071L104.441 261.926L105.553 259.677ZM105.556 246.742L106.36 247.162L105.807 248.847L116.296 253.796L117.204 252.308L118.008 252.727L115.658 257.7L114.853 257.28L115.407 255.595L104.917 250.646L104.009 252.134L103.205 251.715L105.556 246.742ZM111.727 264.387C111.873 264.223 111.974 263.843 112.171 263.488C112.616 262.589 112.655 261.682 112.358 260.89C112.061 260.097 111.403 259.513 110.408 259.043C109.509 258.598 108.603 258.559 107.931 258.787C107.233 259.109 106.675 259.672 106.23 260.572L105.461 262.301L111.168 264.951C111.409 264.812 111.581 264.552 111.727 264.387Z" fill="black"/>
<path d="M110.616 239.644L109.689 240.822L108.885 240.402L111.393 235.982L112.198 236.401L111.6 237.871L116.046 240.284L119.222 234.515L114.776 232.101L113.849 233.279L113.045 232.859L115.433 228.508L116.237 228.928L115.76 230.328L125.951 236.012L126.877 234.834L127.682 235.253L125.268 239.7L124.464 239.28L125.061 237.811L120.261 235.2L117.085 240.97L121.886 243.581L122.863 242.213L123.668 242.632L121.134 247.148L120.329 246.728L120.901 245.354L110.616 239.644Z" fill="black"/>
<path d="M119.039 222.65L120.119 220.902L133.481 223.872L134.236 222.954L135.015 223.468L132.368 227.648L131.589 227.133L132.281 225.689L129.43 224.925L126.56 229.555L128.408 231.781L129.455 230.534L130.234 231.048L127.904 234.804L127.125 234.289L127.62 233.2L119.039 222.65ZM122.131 223.275L120.516 222.842L121.712 224.079L125.832 228.85L128.334 224.835L122.131 223.275Z" fill="black"/>
<path d="M128.605 210.139L127.266 211.715L126.487 211.201L129.395 207.193L137.725 209.934L140.025 210.856L138.385 208.991L133.039 201.956L135.946 197.948L136.725 198.462L135.741 200.235L146.077 205.755L147.219 204.533L147.998 205.047L144.773 209.48L143.994 208.966L144.807 207.452L137.48 203.248L134.288 201.476L136.041 203.677L142.178 211.942L141.492 212.981L132.446 210.251L128.885 209.093L131.614 211.454L137.989 216.931L139.183 215.519L139.961 216.034L137.175 219.972L136.396 219.458L137.183 218.039L128.605 210.139Z" fill="black"/>
<path d="M140.313 192.293L141.557 190.692L154.512 195.181L155.337 194.384L156.09 194.993L153.018 198.855L152.265 198.246L153.122 196.948L150.443 195.924L147.053 200.211L148.66 202.577L149.777 201.45L150.53 202.059L147.776 205.497L147.022 204.888L147.613 203.824L140.313 192.293ZM143.329 193.203L141.764 192.58L142.814 193.982L146.306 199.196L149.233 195.498L143.329 193.203Z" fill="black"/>
<path d="M147.857 185.046L146.696 185.957L145.943 185.348L147.574 183.442C147.866 183.113 148.158 182.784 148.355 182.429C148.793 181.935 149.136 181.416 149.573 180.922C150.741 179.605 151.876 178.789 152.834 178.638C153.791 178.487 154.811 178.862 155.798 179.738C156.552 180.348 157.064 181.096 157.336 181.984C157.607 182.871 157.593 183.682 157.364 184.538C157.135 185.393 156.69 186.292 155.986 187.02C155.72 187.255 155.523 187.609 155.256 187.843C154.99 188.078 154.844 188.242 154.818 188.337L157.971 191.015L159.767 189.256L160.425 189.84L156.433 194.474L155.775 193.89L156.632 192.592L147.857 185.046ZM155.328 186.437C155.937 185.683 156.261 184.853 156.18 184.017C156.098 183.18 155.611 182.336 154.554 181.34C153.731 180.61 152.996 180.312 152.255 180.418C151.513 180.525 150.885 180.968 150.035 181.861C149.743 182.19 149.546 182.545 149.254 182.874C149.083 183.133 148.962 183.203 148.937 183.298L153.995 187.607C154.331 187.494 154.744 187.095 155.328 186.437Z" fill="black"/>
<path d="M165.694 183.102C164.59 183.418 163.494 183.328 162.354 183.022C161.239 182.622 160.175 182.031 159.118 181.035C158.155 180.064 157.409 179.049 157.024 177.826C156.613 176.697 156.634 175.48 156.844 174.314C157.15 173.174 157.645 172.084 158.591 171.217C159.295 170.489 160.094 169.787 161.325 168.996L161.832 168.623L164.13 171.072L163.28 171.964L161.177 170.688C160.961 170.732 160.625 170.846 160.264 171.055C159.902 171.263 159.49 171.662 159.078 172.061C158.519 172.624 158.22 173.359 158.137 174.05C158.029 174.835 158.23 175.602 158.597 176.516C158.989 177.334 159.666 178.228 160.559 179.078C161.356 179.903 162.325 180.468 163.224 180.913C164.124 181.358 165.005 181.492 165.841 181.41C166.678 181.329 167.401 180.912 168.08 180.279C168.518 179.785 168.835 179.361 169.007 179.101C169.178 178.841 169.28 178.461 169.261 178.151L168.433 176.299L169.353 175.527L171.011 177.703C170.865 177.867 170.668 178.222 170.42 178.767C170.198 179.217 170.001 179.571 169.804 179.926C169.607 180.281 169.29 180.705 168.852 181.199C167.786 182.135 166.702 182.761 165.694 183.102Z" fill="black"/>
<path d="M176.763 153.576L177.396 154.255L176.202 155.667L182.481 162.646L182.098 159.895L181.715 151.44L181.411 151.053L180.035 152.008L179.402 151.329L183.278 147.886L183.911 148.565L182.984 149.743L190.738 158.441L191.994 157.555L192.626 158.234L188.75 161.677L188.117 160.998L189.259 159.777L182.911 152.677L183.345 155.238L183.677 163.883L184.146 164.416L185.548 163.366L186.181 164.045L182.279 167.583L181.646 166.904L182.667 165.751L174.914 157.053L173.684 157.844L173.051 157.165L176.763 153.576Z" fill="black"/>
<path d="M186.444 145.577C186.761 145.153 187.078 144.729 187.37 144.399C187.662 144.07 187.929 143.836 188.195 143.602C189.381 142.596 190.536 142.09 191.493 141.939C192.45 141.788 193.254 142.207 193.957 143.007C194.564 143.781 194.861 144.573 194.727 145.454C194.593 146.335 194.294 147.07 193.685 147.823C194.579 147.146 195.492 146.779 196.373 146.914C197.279 146.953 197.989 147.346 198.596 148.12C199.438 149.161 199.753 150.264 199.568 151.335C199.383 152.406 198.577 153.514 197.15 154.659C196.617 155.127 196.014 155.475 195.532 155.754C195.05 156.032 194.594 156.215 194.258 156.329C193.922 156.442 193.706 156.486 193.681 156.582L191.865 153.854L192.639 153.247L194.57 154.783C195.217 154.65 196.035 154.258 196.834 153.556C197.487 153.018 197.856 152.404 197.819 151.783C197.807 151.066 197.579 150.394 196.877 149.595C196.434 148.967 195.82 148.599 195.129 148.515C194.438 148.432 193.646 148.729 192.751 149.406L191.711 150.248L191.008 149.449L191.808 148.746C192.195 148.442 192.512 148.018 192.734 147.568C192.957 147.119 193.084 146.643 193.021 146.117C192.959 145.591 192.68 145.109 192.307 144.602C191.769 143.948 191.25 143.606 190.629 143.643C190.008 143.68 189.431 143.933 188.803 144.376C188.39 144.775 188.098 145.104 187.806 145.433C187.514 145.762 187.533 146.073 187.577 146.288L188.387 147.829L187.467 148.601L185.498 146.444C185.739 146.305 186.031 145.976 186.444 145.577Z" fill="black"/>
<path d="M199.631 136.277L198.21 137.016L197.698 136.268L199.727 134.775C200.089 134.566 200.501 134.167 201.009 133.794C201.421 133.395 201.808 133.091 202.049 132.952C203.451 131.902 204.605 131.396 205.511 131.435C206.418 131.474 207.222 131.894 207.829 132.668C208.342 133.416 208.544 134.183 208.53 134.994C208.516 135.806 208.123 136.515 207.539 137.173C208.459 136.401 209.441 136.155 210.348 136.194C211.254 136.233 212.033 136.748 212.545 137.496C213.292 138.511 213.512 139.589 213.302 140.755C213.091 141.921 212.069 143.073 210.401 144.357C210.014 144.661 209.653 144.87 209.291 145.078C208.448 145.565 208.035 145.964 207.82 146.008L205.79 147.502L205.277 146.753L206.369 145.721L199.631 136.277ZM205.034 138.539L205.903 137.957C206.651 137.445 207.02 136.83 207.077 136.235C207.135 135.639 206.933 134.872 206.421 134.124C205.908 133.375 205.389 133.032 204.793 132.975C204.198 132.917 203.405 133.214 202.631 133.821C202.244 134.125 201.883 134.334 201.591 134.663L201.324 134.897L204.38 139.077C204.285 139.052 204.647 138.843 205.034 138.539ZM209.819 143.488C210.834 142.742 211.443 141.988 211.552 141.203C211.661 140.417 211.459 139.65 210.946 138.901C210.339 138.127 209.75 137.664 209.154 137.606C208.464 137.523 207.766 137.845 206.872 138.522C205.857 139.269 205.229 139.712 204.962 139.946L208.227 144.488C208.443 144.444 208.95 144.07 209.819 143.488Z" fill="black"/>
<path d="M212.192 125.892L213.93 124.727L224.865 132.954L225.924 132.423L226.436 133.171L222.332 135.942L221.82 135.194L223.006 134.188L220.746 132.36L216.16 135.409L216.949 138.167L218.37 137.427L218.882 138.175L215.165 140.643L214.653 139.894L215.478 139.097L212.192 125.892ZM214.858 127.726L213.515 126.654L214.084 128.334L215.819 134.401L219.777 131.795L214.858 127.726Z" fill="black"/>
<path d="M228.765 130.943C227.643 130.948 226.623 130.573 225.559 129.983C224.615 129.322 223.748 128.377 222.958 127.147C222.262 125.942 221.877 124.718 221.777 123.571C221.677 122.424 222.008 121.188 222.573 120.219C223.164 119.155 223.989 118.358 225.098 117.636C225.942 117.149 226.975 116.713 228.32 116.259L228.897 116.006L230.446 118.967L229.361 119.593L227.697 117.823C227.507 117.772 227.171 117.886 226.739 117.974C226.308 118.062 225.826 118.341 225.344 118.619C224.621 119.036 224.158 119.625 223.885 120.265C223.586 121 223.477 121.786 223.628 122.743C223.779 123.7 224.215 124.733 224.867 125.723C225.519 126.712 226.196 127.607 226.949 128.216C227.702 128.825 228.507 129.245 229.362 129.474C230.217 129.703 230.985 129.501 231.828 129.014C232.431 128.666 232.818 128.363 232.989 128.103C233.255 127.869 233.452 127.514 233.529 127.229L233.252 125.22L234.311 124.688L235.272 127.187C235.031 127.326 234.764 127.56 234.447 127.984C234.155 128.313 233.863 128.643 233.476 128.946C233.184 129.276 232.702 129.554 232.22 129.832C231.085 130.648 229.886 130.938 228.765 130.943Z" fill="black"/>
<path d="M238.514 113.184C238.604 112.088 238.884 111.043 239.424 110.169C239.963 109.295 240.642 108.662 241.606 108.105C242.691 107.479 243.768 107.259 244.77 107.323C245.771 107.388 246.791 107.763 247.614 108.493C248.437 109.223 249.209 110.142 249.93 111.252C250.695 112.578 251.055 113.897 251.13 115.139C251.204 116.381 251.019 117.452 250.454 118.421C249.889 119.39 249.184 120.118 248.22 120.674C247.136 121.301 246.058 121.521 244.962 121.431C243.961 121.366 242.941 120.991 242.092 120.357C241.244 119.722 240.377 118.776 239.776 117.597L237.151 119.032L239.743 123.801L241.233 123.182L241.625 124L237.097 126.454L236.705 125.636L237.961 124.75L232.453 114.514L230.989 115.039L230.502 114.195L234.909 111.811L235.396 112.655L234.14 113.54L236.524 117.948L239.245 116.538C238.714 115.479 238.493 114.401 238.514 113.184ZM240.277 111.925C240.136 113.212 240.54 114.746 241.584 116.553C242.488 118.12 243.399 119.281 244.558 119.897C245.717 120.513 246.719 120.578 247.898 119.977C248.957 119.446 249.522 118.477 249.543 117.26C249.563 116.043 249.159 114.509 248.211 112.727C247.306 111.161 246.395 110 245.331 109.409C244.267 108.818 243.171 108.728 242.112 109.259C241.053 109.791 240.418 110.639 240.277 111.925Z" fill="black"/>
<path d="M259.237 108.45C259.947 108.844 260.821 109.383 261.98 110C262.759 110.514 263.278 110.857 263.728 111.079C264.177 111.301 264.367 111.352 264.583 111.308L265.325 111.201L265.716 112.019L263.624 112.986C263.383 113.126 263.003 113.024 262.458 112.776C261.913 112.528 261.229 112.039 260.286 111.379C259.273 110.598 258.399 110.059 257.785 109.69C257.17 109.322 256.67 109.29 256.334 109.403L255.275 109.934L257.557 114.722L259.116 114.223L259.508 115.041L254.841 117.254L254.449 116.436L255.775 115.671L250.844 105.182L249.405 105.612L249.013 104.793L253.559 102.65L253.951 103.468L252.6 104.329L254.857 109.211L256.278 108.472L257.414 101.952L255.854 102.45L255.462 101.632L259.647 99.6981L260.039 100.516L258.809 101.307L257.432 107.966C257.837 107.973 258.503 108.151 259.237 108.45Z" fill="black"/>
<path d="M268.444 110.204C267.373 110.019 266.499 109.479 265.701 108.654C264.904 107.829 264.157 106.814 263.607 105.445C263.058 104.075 262.768 102.877 262.883 101.686C262.999 100.494 263.279 99.4489 263.939 98.5054C264.599 97.5619 265.494 96.8848 266.527 96.4488C268.353 95.7158 269.881 95.7176 271.325 96.4101C272.769 97.1027 273.914 98.53 274.717 100.477C275.267 101.846 275.531 103.139 275.416 104.331C275.3 105.522 274.995 106.662 274.334 107.606C273.674 108.549 272.78 109.227 271.746 109.663C270.567 110.263 269.515 110.389 268.444 110.204ZM264.843 100.072C264.607 101.333 264.916 102.841 265.624 104.763C266.382 106.494 267.268 107.75 268.306 108.435C269.32 109.216 270.416 109.306 271.57 108.8C272.698 108.39 273.359 107.446 273.595 106.185C273.831 104.925 273.547 103.321 272.719 101.469C271.961 99.7382 271.075 98.4822 270.037 97.7965C268.998 97.1108 267.927 96.9257 266.773 97.4314C265.714 97.9625 265.079 98.811 264.843 100.072Z" fill="black"/>
<path d="M275.802 94.1465L274.293 94.4552L274.022 93.5676L276.4 92.6768C276.831 92.5886 277.313 92.3103 277.89 92.0575C278.467 91.8047 278.828 91.596 279.139 91.5774C280.724 90.9835 281.992 90.8139 282.847 91.0431C283.702 91.2723 284.361 91.8561 284.702 92.8642C284.999 93.6568 285.08 94.4934 284.781 95.2283C284.482 95.9631 283.994 96.6469 283.271 97.0643C284.399 96.6538 285.331 96.5978 286.186 96.827C287.041 97.0562 287.674 97.7351 288.015 98.7432C288.426 99.8717 288.406 101.089 287.84 102.058C287.25 103.122 285.994 104.007 284.073 104.715C283.616 104.898 283.28 105.012 282.849 105.1C281.961 105.371 281.384 105.624 281.169 105.668L278.791 106.559L278.494 105.767L279.915 105.027L275.802 94.1465ZM280.418 97.8278L281.426 97.4868C282.218 97.1898 282.751 96.7215 283.025 96.0817C283.298 95.442 283.286 94.7258 282.894 93.9078C282.597 93.1152 282.129 92.5823 281.584 92.3345C281.039 92.0867 280.203 92.1681 279.195 92.5091C278.738 92.6923 278.377 92.901 277.92 93.0843L277.559 93.293L279.41 98.1688C279.53 98.0992 279.866 97.9856 280.418 97.8278ZM283.586 103.871C284.714 103.461 285.488 102.853 285.882 102.144C286.276 101.435 286.264 100.718 285.923 99.7103C285.556 98.7973 285.088 98.2643 284.543 98.0165C283.904 97.7432 283.067 97.8246 282.033 98.2607C280.81 98.6458 280.112 98.9682 279.776 99.0819L281.741 104.294C282.001 104.465 282.673 104.238 283.586 103.871Z" fill="black"/>
<path d="M303.326 83.7985L303.597 84.6861L302.177 85.4259L305.522 96.508L307.247 96.1552L307.518 97.0428L302.529 98.5578L302.257 97.6702L303.652 97.0255L300.237 85.8228L294.48 87.5398L297.896 98.7424L299.62 98.3895L299.891 99.2771L294.902 100.792L294.63 99.9046L296.025 99.2598L292.68 88.1777L291.076 88.461L290.804 87.5734L303.326 83.7985Z" fill="black"/>
<path d="M311.127 95.3613C310.107 94.9862 309.258 94.3514 308.581 93.457C307.904 92.5626 307.398 91.4085 307.064 89.9948C306.73 88.5812 306.656 87.3389 306.892 86.078C307.102 84.9121 307.667 83.9431 308.397 83.1201C309.127 82.2971 310.091 81.7406 311.289 81.4505C313.159 80.933 314.731 81.1504 316.098 82.128C317.371 83.0802 318.301 84.5516 318.837 86.7324C319.171 88.1461 319.22 89.4834 319.01 90.6492C318.774 91.9101 318.209 92.8791 317.384 93.6767C316.559 94.4742 315.595 95.0308 314.492 95.3463C313.173 95.706 312.146 95.7365 311.127 95.3613ZM308.991 84.7052C308.565 85.9152 308.658 87.468 309.15 89.4333C309.572 91.278 310.338 92.6035 311.23 93.4538C312.123 94.3041 313.263 94.6097 314.366 94.2942C315.565 94.0041 316.269 93.2761 316.72 91.9711C317.146 90.7611 317.079 89.1132 316.587 87.148C316.164 85.3032 315.399 83.9778 314.506 83.1274C313.614 82.2771 312.569 81.997 311.37 82.2871C310.216 82.7928 309.391 83.5903 308.991 84.7052Z" fill="black"/>
<path d="M325.053 87.4813C325.19 89.2497 325.05 90.5361 324.674 91.556C324.547 92.0311 324.23 92.4554 323.963 92.6896C323.697 92.9237 323.335 93.1324 322.904 93.2206C322.353 93.3784 321.852 93.3461 321.636 93.3902L321.207 91.9511C321.518 91.9324 321.949 91.8442 322.595 91.7119C322.811 91.6678 323.027 91.6237 323.173 91.4591C323.318 91.2945 323.464 91.1299 323.541 90.8448C324.189 89.1851 323.977 86.1745 323.051 81.6483L322.717 80.2347L320.518 80.4602L320.341 79.5981L330.902 77.4369L331.079 78.299L329.398 78.8674L331.736 90.2906L333.625 90.0837L333.801 90.9458L328.197 92.0925L328.021 91.2304L329.917 90.6179L327.579 79.1948L323.915 79.9446L324.293 81.5738C324.614 83.7987 324.89 85.808 325.053 87.4813Z" fill="black"/>
<path d="M334.666 77.8344L333.139 77.8326L332.988 76.8754L342.369 75.315L343.133 78.1678L342.081 78.2933L341.227 76.5367L336.682 77.1524L337.525 82.3692L340.638 81.7772L340.64 80.2499L341.692 80.1244L342.384 84.3841L341.332 84.5096L340.833 82.9499L337.746 83.4469L338.607 88.9743L343.78 87.9158L344.347 85.4195L345.513 85.63L345.554 88.9003L335.335 90.5421L335.159 89.68L336.693 89.2762L334.666 77.8344Z" fill="black"/>
<path d="M350.076 75.4445L346.894 75.916L346.756 79.8515L345.488 80.0211L345.19 75.0521L356.764 73.6717L357.589 78.578L356.441 78.678L355.337 74.8171L352.111 75.073L353.561 86.7677L356.235 86.6695L356.291 87.6012L349.236 88.461L349.181 87.5293L351.551 87.0441L350.076 75.4445Z" fill="black"/>
<path d="M365.356 80.761L364.424 80.8169C364.158 81.0511 363.84 81.4753 363.592 82.02C363.319 82.6598 363.02 83.3946 362.766 84.345C362.416 85.2698 362.238 85.9351 362.015 86.3848C361.793 86.8345 361.622 87.0941 361.406 87.1382L358.896 87.3824L358.84 86.4507L359.512 86.2233C359.728 86.1792 359.874 86.0146 360.071 85.6599C360.267 85.3053 360.515 84.7605 360.814 84.0257C361.138 83.1959 361.532 82.4866 361.78 81.9418C362.123 81.4225 362.44 80.9983 362.802 80.7896C361.921 80.6555 361.211 80.2617 360.674 79.6082C360.136 78.9548 359.839 78.1623 359.783 77.2306C359.664 75.7728 360.065 74.6579 360.839 74.0504C361.733 73.3733 362.957 72.9882 364.605 72.9204C364.915 72.9018 365.441 72.8391 366.037 72.8968C366.658 72.8595 367.064 72.8663 367.374 72.8477L370.074 72.6545L370.13 73.5862L368.621 73.8949L369.527 85.3417L371.244 85.3945L371.3 86.3262L365.779 86.7822L365.724 85.8505L367.543 85.5231L367.15 80.5286L365.356 80.761ZM366.118 73.7335C365.523 73.6757 365.092 73.7639 364.591 73.7316C363.659 73.7876 362.867 74.0845 362.454 74.4833C361.921 74.9516 361.718 75.7119 361.843 76.7641C361.874 77.7908 362.291 78.5138 362.759 79.0467C363.348 79.5101 364.108 79.7138 365.04 79.6578C366.067 79.6274 366.713 79.4951 367.024 79.4764L366.619 73.7658L366.118 73.7335Z" fill="black"/>
<path d="M376.842 73.2457L373.616 73.5017L373.073 77.4303L371.83 77.5049L371.963 72.4476L383.593 71.9989L383.987 76.9934L382.865 76.9984L382.071 73.1188L378.801 73.1593L379.198 84.9794L381.822 85.0713L381.878 86.003L374.786 86.2417L374.73 85.31L377.145 85.0403L376.842 73.2457Z" fill="black"/>
<path d="M392.678 85.2302C391.734 84.57 391.032 83.7706 390.501 82.7116C389.97 81.6525 389.8 80.3848 389.777 78.9525C389.848 77.5456 390.179 76.3102 390.77 75.2462C391.36 74.1822 392.185 73.3846 393.244 72.8535C394.303 72.3224 395.406 72.0069 396.718 72.0528C397.624 72.0919 398.816 72.2074 400.146 72.5639L400.716 72.7167L400.421 76.1006L399.204 76.0802L398.814 73.7348C398.649 73.5888 398.39 73.4174 397.914 73.2901C397.439 73.1627 396.939 73.1304 396.343 73.0727C395.532 73.0591 394.86 73.2864 394.232 73.7293C393.604 74.1722 393.115 74.856 392.696 75.6604C392.346 76.5853 392.091 77.5356 392.046 78.8475C392.025 80.0643 392.151 81.1164 392.422 82.004C392.693 82.8916 393.18 83.7351 393.839 84.319C394.497 84.9028 395.232 85.2016 396.138 85.2407C396.854 85.2288 397.26 85.2357 397.691 85.1475C398.027 85.0338 398.363 84.9201 398.63 84.6859L399.424 82.8617L400.59 83.0722L400.092 85.689C399.782 85.7077 399.446 85.8214 398.92 85.8841C398.489 85.9723 398.032 86.1555 397.627 86.1487C397.195 86.2369 396.695 86.2046 396.074 86.2419C394.762 86.196 393.622 85.8904 392.678 85.2302Z" fill="black"/>
<path d="M408.284 72.6052L408.245 73.5114L406.381 73.6233L405.698 83.0148L407.406 80.824L413.238 74.6455L413.27 74.1449L411.629 73.807L411.668 72.9008L416.769 73.2491L416.73 74.1554L415.272 74.274L414.504 85.8836L416.05 86.196L416.011 87.1022L410.815 86.7284L410.854 85.8222L412.502 85.7545L413.115 76.2424L411.554 78.2686L405.602 84.5167L405.518 85.2074L407.28 85.4757L407.241 86.3819L401.949 85.9827L401.988 85.0764L403.541 84.9832L404.309 73.3736L402.858 73.0867L402.897 72.1805L408.284 72.6052Z" fill="black"/>
<path d="M428.562 74.4736L428.17 79.3594L426.883 79.2185L426.78 75.4221L422.661 74.8278L421.342 86.5951L424.554 87.1503L424.42 88.0311L417.108 87.1921L417.242 86.3114L419.27 86.3455L420.513 74.8632L418.612 74.3539L418.746 73.4732L428.562 74.4736Z" fill="black"/>
<path d="M431.71 76.0303L430.309 75.5533L430.444 74.6725L435.443 75.401L435.309 76.2818L433.687 76.2545L432.958 81.254L439.409 82.2694L440.137 77.2699L438.642 76.7674L438.776 75.8866L443.776 76.6151L443.642 77.4959L442.114 77.494L440.37 88.944L441.796 89.326L441.662 90.2067L436.662 89.4783L436.796 88.5975L438.324 88.5993L439.154 83.2197L432.704 82.2043L431.873 87.5839L433.489 88.0168L433.355 88.8976L428.26 88.1437L428.394 87.2629L429.922 87.2647L431.71 76.0303Z" fill="black"/>
<path d="M450.53 78.0175L452.551 78.4572L454.424 91.9965L455.539 92.3972L455.404 93.2779L450.576 92.2898L450.711 91.409L452.307 91.5314L451.975 88.5903L446.672 87.4749L445.268 90.0526L446.763 90.5551L446.629 91.4358L442.276 90.5751L442.41 89.6943L443.627 89.7148L450.53 78.0175ZM451.122 81.1299L450.959 79.4566L450.241 80.9958L447.237 86.5059L451.875 87.4431L451.122 81.1299Z" fill="black"/>
<path d="M461.221 89.4378C460.598 91.0025 459.861 92.2311 459.157 92.9591C458.745 93.3579 458.383 93.5666 458.047 93.6802C457.711 93.7939 457.305 93.7871 456.83 93.6598C456.26 93.507 455.785 93.3797 455.525 93.2082L455.717 91.7318C456.002 91.8082 456.477 91.9355 457.048 92.0883C457.238 92.1392 457.453 92.0951 457.669 92.051C457.884 92.0069 458.03 91.8423 458.297 91.6082C459.534 90.4118 460.799 87.5931 461.9 83.1011L462.282 81.6755L460.287 81.1408L460.541 80.1905L471.046 82.8015L470.791 83.7518L469.004 83.5785L466.19 94.8435L467.944 95.5173L467.715 96.3726L462.083 94.9653L462.312 94.11L464.263 94.4292L467.078 83.1643L463.346 82.2662L462.913 83.8818C462.474 85.903 461.844 87.8732 461.221 89.4378Z" fill="black"/>
<path d="M477.292 90.281C478.692 90.758 479.731 91.4437 480.313 92.3126C480.895 93.1816 480.995 94.3288 480.569 95.5388C480.092 96.9388 479.336 97.8569 478.303 98.2929C477.149 98.7985 475.932 98.7781 474.507 98.3961C474.317 98.3452 474.126 98.2943 473.936 98.2433C473.746 98.1924 473.556 98.1415 473.297 97.97C472.657 97.6968 471.992 97.5185 471.447 97.2707L469.001 96.5136L469.231 95.6583L470.777 95.9707L474.162 84.8586L472.812 84.1915L473.042 83.3362L478.122 84.9013L477.893 85.7566L476.037 85.4629L474.726 89.5934L477.292 90.281ZM473.456 96.9942C473.646 97.0452 474.001 97.242 474.381 97.3439C475.426 97.624 476.238 97.6377 476.961 97.2202C477.684 96.8028 478.172 96.119 478.453 95.0736C478.733 94.0282 478.721 93.3121 478.303 92.5891C477.956 91.9866 477.272 91.4978 476.252 91.1226L474.446 90.6388L472.626 96.67C473.007 96.7719 473.266 96.9433 473.456 96.9942ZM490.09 88.5154L489.861 89.3707L488.099 89.1024L484.714 100.215L486.348 100.958L486.119 101.813L480.848 100.197L481.078 99.3419L482.814 99.7053L486.199 88.5931L484.564 87.8497L484.793 86.9944L490.09 88.5154Z" fill="black"/>
<path d="M497.779 92.5111L496.455 91.749L496.779 90.9191L501.499 92.693L501.174 93.5228L499.628 93.2104L497.855 97.9298L504.044 100.301L505.817 95.5817L504.494 94.8197L504.818 93.9898L509.537 95.7637L509.213 96.5935L507.762 96.3066L503.617 107.215L504.966 107.882L504.642 108.712L499.923 106.938L500.247 106.108L501.767 106.516L503.738 101.442L497.549 99.0702L495.578 104.144L496.997 104.932L496.673 105.762L491.884 103.867L492.208 103.037L493.729 103.445L497.779 92.5111Z" fill="black"/>
<path d="M515.771 98.3505L517.69 99.1703L516.672 112.852L517.616 113.512L517.291 114.342L512.743 112.309L513.068 111.479L514.563 111.981L514.947 109.028L509.923 106.868L508.026 109.007L509.445 109.795L509.12 110.625L505.022 108.814L505.346 107.984L506.487 108.289L515.771 98.3505ZM515.716 101.595L515.959 99.9287L514.886 101.271L510.774 105.975L515.157 107.862L515.716 101.595Z" fill="black"/>
<path d="M529.482 106.099L527.76 104.924L528.179 104.12L532.556 106.413L531.05 115.075L530.508 117.476L532.114 115.665L538.281 109.373L542.658 111.666L542.239 112.471L540.294 111.746L536.244 122.68L537.611 123.657L537.192 124.462L532.461 121.972L532.88 121.167L534.445 121.79L537.56 113.967L538.882 110.553L536.915 112.572L529.681 119.801L528.617 119.21L530.112 109.832L530.769 106.24L528.832 109.286L524.273 116.417L525.831 117.445L525.412 118.25L521.13 115.982L521.549 115.178L523.019 115.775L529.482 106.099Z" fill="black"/>
<path d="M548.852 115.16L550.6 116.239L548.01 129.703L548.954 130.364L548.535 131.168L544.304 128.71L544.723 127.906L546.193 128.503L546.836 125.722L542.182 122.947L540.024 124.915L541.297 125.867L540.878 126.672L537.097 124.436L537.516 123.632L538.631 124.033L548.852 115.16ZM548.417 118.302L548.85 116.687L547.613 117.883L542.911 122.124L547.047 124.556L548.417 118.302Z" fill="black"/>
<path d="M557.121 121.551L556.064 120.555L556.578 119.776L558.655 121.147C559.01 121.344 559.434 121.662 559.789 121.859C560.403 122.227 560.948 122.475 561.467 122.818C562.93 123.821 563.892 124.791 564.138 125.774C564.384 126.757 564.199 127.828 563.513 128.866C562.974 129.74 562.32 130.278 561.502 130.67C560.684 131.062 559.848 131.143 558.967 131.009C558.086 130.875 557.161 130.525 556.287 129.986C555.932 129.789 555.673 129.617 555.344 129.325C554.989 129.128 554.824 128.982 554.755 128.862L552.501 132.332L554.527 133.894L554.013 134.673L548.89 131.365L549.404 130.586L550.848 131.278L557.121 121.551ZM556.801 129.207C557.675 129.746 558.436 129.95 559.298 129.774C560.16 129.597 560.934 128.99 561.67 127.761C562.21 126.887 562.439 126.032 562.212 125.36C561.985 124.688 561.447 124.034 560.503 123.374C560.149 123.177 559.794 122.98 559.344 122.758C559.085 122.587 558.895 122.536 558.895 122.536L555.269 128.083C555.598 128.375 556.023 128.692 556.801 129.207Z" fill="black"/>
<path d="M561.53 138.928C561.094 137.894 560.994 136.747 561.179 135.676C561.364 134.605 561.911 133.326 562.743 132.123C563.549 131.015 564.494 130.147 565.553 129.616C566.612 129.085 567.785 128.89 568.976 129.006C570.168 129.121 571.283 129.522 572.296 130.303C573.075 130.817 573.967 131.667 574.834 132.612L575.328 133.05L573.208 135.64L572.17 134.954L573.161 132.775C573.117 132.56 572.883 132.293 572.674 131.932C572.465 131.57 571.946 131.227 571.427 130.885C570.743 130.396 570.078 130.217 569.266 130.204C568.455 130.19 567.663 130.487 566.914 131C566.166 131.512 565.341 132.31 564.681 133.253C564.02 134.197 563.55 135.191 563.201 136.116C562.946 137.066 562.812 137.947 563.083 138.835C563.355 139.722 563.797 140.35 564.576 140.864C565.096 141.207 565.52 141.525 565.9 141.627C566.28 141.728 566.565 141.805 566.876 141.786L568.588 140.717L569.481 141.567L567.539 143.492C567.28 143.32 566.9 143.218 566.45 142.996C565.975 142.869 565.62 142.672 565.145 142.545C564.79 142.348 564.34 142.125 563.821 141.782C562.834 140.907 561.966 139.961 561.53 138.928Z" fill="black"/>
<path d="M588.79 142.871L588.181 143.624L586.623 142.596L580.701 149.871L583.364 149.056L591.649 147.406L591.966 146.981L590.865 145.77L591.474 145.016L595.476 148.329L594.867 149.083L593.543 148.321L586.136 157.336L587.263 158.453L586.679 159.112L582.678 155.799L583.261 155.14L584.655 156.023L590.697 148.678L588.25 149.449L579.749 151.143L579.311 151.637L580.507 152.874L579.923 153.533L575.827 150.194L576.411 149.536L577.709 150.393L585.116 141.377L584.084 140.286L584.693 139.532L588.79 142.871Z" fill="black"/>
<path d="M598.267 151.216C598.812 151.464 599.141 151.756 599.496 151.953C599.851 152.15 600.18 152.441 600.44 152.613C601.592 153.635 602.338 154.65 602.584 155.632C602.83 156.615 602.601 157.47 601.897 158.198C601.192 158.926 600.469 159.343 599.563 159.304C598.727 159.386 597.871 159.157 597.092 158.642C597.89 159.467 598.377 160.311 598.458 161.147C598.54 161.984 598.215 162.814 597.632 163.472C596.756 164.46 595.697 164.991 594.601 164.901C593.479 164.906 592.32 164.29 590.908 163.097C590.319 162.633 589.946 162.126 589.572 161.618C589.199 161.111 588.99 160.749 588.756 160.483C588.617 160.242 588.478 160.001 588.408 159.88L590.832 157.678L591.49 158.262L590.309 160.39C590.536 161.062 591.074 161.715 591.802 162.42C592.461 163.003 593.005 163.251 593.747 163.144C594.394 163.012 595.091 162.69 595.701 161.936C596.259 161.373 596.437 160.708 596.52 160.017C596.604 159.326 596.091 158.578 595.268 157.848L594.28 156.972L594.985 156.244L595.808 156.974C596.232 157.291 596.656 157.609 597.132 157.736C597.607 157.863 598.107 157.896 598.659 157.738C599.21 157.58 599.597 157.276 600.035 156.783C600.619 156.124 600.867 155.579 600.735 154.933C600.697 154.312 600.324 153.804 599.666 153.22C599.267 152.808 598.912 152.611 598.462 152.389C598.108 152.192 597.797 152.21 597.582 152.255L596.18 153.305L595.262 152.55L597.09 150.289C597.393 150.676 597.748 150.873 598.267 151.216Z" fill="black"/>
<path d="M609.408 162.859L608.522 161.603L609.201 160.97L610.96 162.766C611.29 163.058 611.688 163.47 612.182 163.908C612.676 164.346 613.005 164.638 613.17 164.784C614.366 166.021 615.113 167.036 615.169 167.968C615.345 168.83 615.021 169.66 614.317 170.388C613.638 171.021 612.94 171.343 612.199 171.45C611.457 171.557 610.602 171.327 609.823 170.813C610.715 171.663 611.202 172.507 611.258 173.439C611.314 174.37 611.015 175.105 610.311 175.833C609.461 176.726 608.332 177.136 607.236 177.046C606.044 176.931 604.721 176.169 603.265 174.76C602.936 174.468 602.632 174.081 602.398 173.815C601.765 173.136 601.366 172.723 601.201 172.577L599.442 170.782L600.121 170.149L601.393 171.101L609.408 162.859ZM603.874 174.007C604.767 174.857 605.546 175.371 606.357 175.385C607.168 175.398 607.866 175.076 608.544 174.443C609.223 173.81 609.522 173.075 609.485 172.454C609.448 171.833 609.03 171.11 608.233 170.285C607.34 169.435 606.777 168.877 606.542 168.61L602.634 172.554C602.678 172.769 603.172 173.207 603.874 174.007ZM608.095 168.517L608.823 169.221C609.482 169.805 610.096 170.173 610.717 170.136C611.338 170.099 612.036 169.776 612.62 169.118C613.203 168.46 613.546 167.94 613.509 167.319C613.472 166.698 613.054 165.975 612.326 165.271C611.997 164.979 611.668 164.687 611.244 164.37L610.914 164.078L607.272 167.787C607.462 167.838 607.696 168.104 608.095 168.517Z" fill="black"/>
<path d="M621.708 173.591L623.139 175.094L616.755 187.134L617.407 188.124L616.728 188.757L613.424 185.121L614.103 184.488L615.255 185.51L616.754 182.958L613.051 178.91L610.382 180.13L611.362 181.411L610.684 182.044L607.683 178.796L608.362 178.163L609.28 178.918L621.708 173.591ZM620.228 176.453L621.136 174.965L619.595 175.774L613.895 178.423L617.129 181.938L620.228 176.453Z" fill="black"/>
<path d="M619.153 190.731C618.958 189.558 619.143 188.487 619.639 187.398C620.135 186.308 620.915 185.295 622.076 184.384C623.142 183.447 624.296 182.942 625.494 182.652C626.693 182.362 627.884 182.477 628.999 182.878C630.114 183.278 631.057 183.939 631.899 184.979C632.506 185.753 633.158 186.742 633.759 187.922L634.011 188.499L631.328 190.53L630.556 189.61L632.092 187.679C632.048 187.463 632.029 187.153 631.821 186.791C631.612 186.43 631.334 185.948 630.935 185.535C630.397 184.882 629.783 184.514 629.022 184.31C628.262 184.106 627.425 184.188 626.538 184.459C625.65 184.731 624.686 185.287 623.766 186.059C622.847 186.831 622.117 187.654 621.602 188.433C621.063 189.307 620.834 190.162 620.82 190.974C620.806 191.785 621.103 192.577 621.711 193.351C622.179 193.884 622.508 194.176 622.863 194.373C623.218 194.57 623.477 194.741 623.788 194.723L625.683 194.11L626.335 195.1L624.02 196.517C623.855 196.371 623.526 196.079 623.102 195.761C622.652 195.539 622.323 195.247 621.994 194.955C621.665 194.663 621.24 194.346 620.867 193.838C619.88 192.963 619.348 191.904 619.153 190.731Z" fill="black"/>
<path d="M638.177 197.661C639.324 197.561 640.3 197.721 641.224 198.071C642.149 198.42 642.972 199.15 643.58 199.924C644.326 200.939 644.693 201.852 644.818 202.904C644.849 203.931 644.689 204.907 644.124 205.876C643.559 206.845 642.804 207.763 641.668 208.579C640.507 209.49 639.233 210.065 638.035 210.356C636.836 210.646 635.74 210.556 634.625 210.155C633.51 209.754 632.757 209.145 632.08 208.251C631.333 207.236 630.897 206.202 630.772 205.15C630.646 204.098 630.901 203.147 631.371 202.153C631.936 201.184 632.691 200.266 633.732 199.424L631.935 197.008L627.583 200.323L628.418 201.769L627.67 202.282L624.588 198.197L625.337 197.684L626.463 198.801L635.674 191.796L634.909 190.471L635.682 189.863L638.694 193.828L637.921 194.435L636.794 193.319L632.829 196.331L634.626 198.747C635.996 198.198 637.099 197.882 638.177 197.661ZM639.797 199.216C638.555 199.291 637.065 199.91 635.396 201.195C633.969 202.34 632.973 203.397 632.547 204.607C632.121 205.817 632.246 206.869 632.993 207.884C633.765 208.804 634.664 209.249 635.932 209.079C637.174 209.005 638.595 208.265 640.238 207.075C641.665 205.93 642.661 204.873 643.087 203.663C643.513 202.453 643.388 201.401 642.711 200.506C642.034 199.612 641.039 199.142 639.797 199.216Z" fill="black"/>
<path d="M646.126 217.413C645.922 218.173 645.452 219.168 644.931 220.352C644.511 221.156 644.333 221.822 644.136 222.176C644.034 222.556 643.933 222.937 644.002 223.057L644.229 223.729L643.481 224.242L642.152 222.358C642.013 222.117 642.02 221.711 642.268 221.166C642.516 220.622 642.84 219.792 643.31 218.797C643.926 217.638 644.276 216.713 644.549 216.074C644.822 215.434 644.76 214.908 644.646 214.572L643.994 213.582L639.624 216.587L640.339 218.103L639.59 218.615L636.75 214.391L637.498 213.879L638.504 215.065L648.088 208.568L647.443 207.173L648.192 206.66L650.963 210.764L650.214 211.277L649.208 210.09L644.743 213.07L645.603 214.421L652.188 214.555L651.448 213.135L652.196 212.622L654.733 216.46L653.985 216.972L652.953 215.881L646.204 215.6C646.387 216.057 646.329 216.653 646.126 217.413Z" fill="black"/>
<path d="M645.753 226.786C645.818 225.784 646.098 224.739 646.853 223.821C647.513 222.877 648.459 222.01 649.664 221.315C650.894 220.524 652.118 220.139 653.265 220.039C654.507 219.964 655.578 220.149 656.573 220.619C657.567 221.089 658.39 221.819 659.016 222.904C659.99 224.591 660.299 226.099 659.771 227.69C659.268 229.185 658.101 230.501 656.268 231.64C655.037 232.431 653.814 232.816 652.546 232.986C651.304 233.06 650.233 232.875 649.143 232.379C648.149 231.909 647.352 231.084 646.7 230.095C646.004 228.89 645.784 227.812 645.753 226.786ZM655.291 221.6C654.074 221.58 652.515 222.078 650.802 223.147C649.21 224.147 648.119 225.179 647.598 226.363C646.982 227.522 647.107 228.574 647.733 229.659C648.385 230.648 649.354 231.213 650.571 231.234C651.883 231.28 653.347 230.756 655.06 229.687C656.652 228.687 657.743 227.655 658.264 226.471C658.76 225.381 658.755 224.26 658.129 223.175C657.477 222.186 656.603 221.646 655.291 221.6Z" fill="black"/>
<path d="M662.783 231.654L662.259 230.19L663.102 229.703L664.354 231.872C664.563 232.233 664.841 232.715 665.215 233.222C665.588 233.73 665.797 234.091 665.936 234.332C666.745 235.873 667.156 237.002 666.996 237.978C666.837 238.954 666.373 239.542 665.504 240.124C664.781 240.542 663.919 240.718 663.133 240.61C662.348 240.501 661.638 240.107 661.031 239.333C661.657 240.418 661.833 241.28 661.674 242.256C661.54 243.136 660.956 243.795 660.112 244.282C659.028 244.908 657.881 245.008 656.766 244.607C655.651 244.207 654.619 243.115 653.576 241.308C653.367 240.947 653.184 240.49 652.975 240.128C652.488 239.285 652.235 238.708 652.165 238.587L650.913 236.419L651.731 236.027L652.617 237.282L662.783 231.654ZM654.324 240.796C654.95 241.88 655.583 242.559 656.343 242.763C657.104 242.966 657.845 242.86 658.689 242.373C659.532 241.886 659.996 241.297 660.148 240.726C660.301 240.156 660.125 239.294 659.568 238.33C658.942 237.246 658.525 236.523 658.385 236.282L653.496 238.944C653.584 239.375 653.837 239.952 654.324 240.796ZM659.906 236.689L660.367 237.628C660.785 238.351 661.374 238.814 661.944 238.967C662.609 239.145 663.256 239.013 664.099 238.526C664.822 238.108 665.26 237.615 665.413 237.044C665.566 236.474 665.364 235.707 664.807 234.743C664.599 234.382 664.295 233.995 664.112 233.538L663.903 233.177L659.349 235.725C659.489 235.966 659.628 236.207 659.906 236.689Z" fill="black"/>
<path d="M677.342 257.149L676.523 257.541L675.663 256.19L665.244 261.241L665.813 262.921L664.995 263.313L662.713 258.526L663.531 258.134L664.391 259.485L674.905 254.459L672.275 249.069L661.735 254.189L662.304 255.87L661.486 256.262L659.178 251.569L659.996 251.177L660.787 252.407L671.206 247.356L670.707 245.797L671.525 245.405L677.342 257.149Z" fill="black"/>
<path d="M667.038 266.713C667.223 265.642 667.763 264.768 668.492 263.945C669.317 263.147 670.332 262.401 671.607 261.826C672.881 261.25 674.174 260.986 675.366 261.101C676.557 261.217 677.602 261.497 678.546 262.157C679.489 262.817 680.166 263.712 680.603 264.745C681.335 266.571 681.429 268.124 680.641 269.543C679.949 270.987 678.521 272.132 676.575 272.935C675.205 273.485 673.912 273.749 672.721 273.634C671.529 273.518 670.389 273.213 669.445 272.553C668.502 271.892 667.825 270.998 667.294 269.939C666.978 268.836 666.783 267.663 667.038 266.713ZM677.195 263.017C675.934 262.781 674.425 263.09 672.479 263.893C670.748 264.651 669.492 265.537 668.806 266.575C668.12 267.614 667.935 268.685 668.441 269.839C668.947 270.993 669.795 271.628 671.056 271.864C672.317 272.1 673.921 271.816 675.772 270.988C677.503 270.23 678.759 269.344 679.445 268.306C680.131 267.267 680.221 266.171 679.81 265.042C679.304 263.888 678.456 263.253 677.195 263.017Z" fill="black"/>
<path d="M676.948 279.146C675.223 279.499 673.861 279.643 672.885 279.484C672.41 279.356 671.934 279.229 671.7 278.963C671.371 278.671 671.137 278.404 670.954 277.948C670.701 277.371 670.613 276.94 670.594 276.629L671.989 275.984C672.008 276.295 672.191 276.751 672.444 277.328C672.488 277.544 672.652 277.69 672.817 277.836C672.982 277.982 673.172 278.033 673.457 278.109C675.193 278.472 678.21 277.855 682.414 276.231L683.784 275.681L683.222 273.596L684.135 273.229L687.951 283.317L687.038 283.683L686.229 282.142L675.348 286.255L675.796 288.005L674.909 288.276L672.9 282.849L673.787 282.577L674.641 284.334L685.521 280.221L684.22 276.715L682.635 277.309C680.542 278.276 678.672 278.793 676.948 279.146Z" fill="black"/>
<path d="M688.029 287.208L687.72 285.7L688.608 285.428L691.582 294.475L688.938 295.6L688.597 294.592L690.119 293.472L688.762 289.034L683.747 290.644L684.796 293.574L686.374 293.385L686.715 294.394L682.587 295.732L682.246 294.724L683.667 293.984L682.739 290.985L677.483 292.735L679.309 297.706L681.907 297.892L681.912 299.014L678.635 299.46L675.364 289.62L676.251 289.349L676.896 290.744L688.029 287.208Z" fill="black"/>
<path d="M692.815 302.038L691.792 299.013L687.799 299.471L687.509 298.273L692.371 297.233L695.571 308.48L690.771 310.046L690.456 308.943L694.064 307.261L693.282 304.098L681.94 307.272L682.469 309.859L681.582 310.13L679.644 303.296L680.532 303.024L681.353 305.281L692.815 302.038Z" fill="black"/>
<path d="M689.874 317.954L689.698 317.092C689.464 316.826 688.988 316.698 688.323 316.52C687.658 316.342 686.872 316.233 685.896 316.074C684.921 315.914 684.255 315.736 683.78 315.608C683.305 315.481 683.046 315.31 683.001 315.094L682.447 312.603L683.309 312.426L683.631 313.124C683.701 313.244 683.96 313.416 684.315 313.613C684.695 313.715 685.265 313.867 686 314.166C686.856 314.395 687.616 314.599 688.281 314.777C688.826 315.025 689.275 315.247 689.605 315.539C689.644 314.633 689.943 313.898 690.406 313.309C690.99 312.651 691.713 312.234 692.575 312.057C693.988 311.723 695.154 311.934 695.882 312.638C696.61 313.342 697.211 314.522 697.589 316.151C697.703 316.487 697.766 317.013 697.828 317.539C697.866 318.16 697.954 318.591 698.068 318.927L698.692 321.539L697.804 321.811L697.185 320.321L685.876 322.994L686.133 324.693L685.297 324.774L683.979 319.43L684.841 319.254L685.409 320.934L690.202 319.774L689.874 317.954ZM696.871 317.69C696.809 317.164 696.746 316.638 696.658 316.207C696.412 315.224 696.064 314.622 695.57 314.184C695.076 313.746 694.265 313.732 693.282 313.978C692.3 314.224 691.577 314.642 691.208 315.256C690.84 315.87 690.731 316.656 690.977 317.639C691.223 318.621 691.356 319.268 691.495 319.509L697.055 318.147L696.871 317.69Z" fill="black"/>
<path d="M699.058 328.156L698.371 325.018L694.359 325.166L694.164 323.993L699.114 323.384L701.357 334.782L696.469 335.917L696.274 334.744L699.996 333.399L699.524 330.216L687.937 332.408L688.25 335.039L687.388 335.215L686.002 328.223L686.864 328.047L687.565 330.373L699.058 328.156Z" fill="black"/>
<path d="M689.695 345.611C690.166 344.617 690.921 343.699 691.885 343.142C692.874 342.491 694.098 342.105 695.486 341.866C696.849 341.722 698.161 341.768 699.25 342.264C700.365 342.664 701.283 343.42 702.055 344.339C702.827 345.259 703.238 346.388 703.408 347.656C703.559 348.613 703.564 349.735 703.397 351.116L703.339 351.712L700.018 351.942L699.849 350.674L702.106 349.853C702.252 349.689 702.354 349.308 702.36 348.903C702.367 348.497 702.425 347.902 702.267 347.35C702.16 346.608 701.838 345.911 701.275 345.352C700.711 344.794 700.002 344.4 699.052 344.146C698.101 343.891 697.074 343.922 695.832 343.996C694.66 344.191 693.677 344.437 692.738 344.899C691.8 345.36 691.146 345.898 690.658 346.582C690.169 347.266 690.035 348.147 690.116 348.983C690.248 349.63 690.311 350.156 690.52 350.517C690.634 350.853 690.868 351.12 691.102 351.386L693.003 351.896L692.982 353.112L690.263 352.995C690.219 352.78 690.131 352.349 689.853 351.867C689.669 351.41 689.461 351.049 689.373 350.617C689.284 350.186 689.101 349.73 689.064 349.109C689.084 347.892 689.2 346.701 689.695 345.611Z" fill="black"/>
<path d="M704.598 359.179L703.667 359.235L703.244 357.39L693.851 358.235L696.238 359.587L703.318 364.336L703.844 364.274L703.897 362.556L704.829 362.5L705.292 367.615L704.36 367.671L704.026 366.258L692.433 367.327L692.406 368.95L691.474 369.006L691.037 363.796L691.968 363.74L692.347 365.369L701.835 364.55L699.517 363.318L692.368 358.448L691.746 358.486L691.694 360.203L690.762 360.259L690.325 355.049L691.256 354.993L691.565 356.502L703.158 355.432L703.255 353.93L704.186 353.874L704.598 359.179Z" fill="black"/>
<path d="M705.879 379.486L701.005 379.81L700.931 378.568L704.69 377.843L704.663 373.762L692.912 374.28L692.858 377.525L691.926 377.581L691.548 370.248L692.48 370.192L692.756 372.201L704.317 371.632L704.446 369.629L705.378 369.574L705.879 379.486Z" fill="black"/>
<path d="M704.798 382.761L704.99 381.285L705.896 381.324L705.858 386.407L704.952 386.368L704.764 384.789L699.776 384.777L699.737 391.387L704.724 391.4L704.916 389.923L705.822 389.962L705.81 394.95L704.904 394.911L704.69 393.428L693.067 393.471L692.875 394.947L691.969 394.908L691.981 389.92L692.887 389.959L693.076 391.538L698.469 391.557L698.508 384.947L693.115 384.928L692.898 386.499L691.992 386.46L691.934 381.352L692.84 381.391L693.054 382.874L704.798 382.761Z" fill="black"/>
<path d="M705.84 401.68L705.806 403.708L692.733 407.641L692.522 408.807L691.616 408.768L691.818 403.831L692.725 403.87L692.818 405.423L695.671 404.66L695.905 399.222L693.226 398.199L693.008 399.77L692.102 399.731L692.272 395.295L693.179 395.334L693.279 396.481L705.84 401.68ZM702.79 402.799L704.419 402.42L702.734 401.867L696.805 399.667L696.558 404.388L702.79 402.799Z" fill="black"/>
<path d="M696.205 414.072C694.494 413.613 693.284 413.187 692.436 412.553C692.011 412.235 691.682 411.943 691.569 411.607C691.36 411.246 691.367 410.84 691.373 410.434C691.431 409.839 691.438 409.433 691.61 409.174L693.137 409.175C693.06 409.461 693.028 409.961 692.97 410.557C692.919 410.747 692.964 410.962 693.103 411.203C693.147 411.419 693.311 411.565 693.571 411.736C694.913 412.809 697.98 413.529 702.46 413.914L703.962 414.011L704.332 411.87L705.238 411.909L704.294 422.656L703.388 422.617L703.345 420.874L691.812 419.821L691.423 421.652L690.517 421.613L691.044 415.846L691.95 415.886L691.941 417.818L703.475 418.872L703.777 415.082L702.085 414.934C699.797 414.729 697.846 414.41 696.205 414.072Z" fill="black"/>
<path d="M697.846 429.994C697.654 431.47 697.133 432.655 696.239 433.332C695.439 434.034 694.362 434.255 693.075 434.114C691.694 433.947 690.655 433.262 690.004 432.272C689.352 431.283 689.183 430.015 689.374 428.539C689.425 428.348 689.476 428.158 689.432 427.943C689.388 427.727 689.534 427.563 689.61 427.278C689.789 426.612 689.872 425.922 690.025 425.352L690.402 422.804L691.282 422.938L691.255 424.561L702.826 426.235L703.328 424.74L704.209 424.874L703.404 430.159L702.523 430.025L702.411 428.161L698.103 427.516L697.846 429.994ZM690.612 427.342C690.561 427.532 690.459 427.912 690.452 428.318C690.267 429.389 690.469 430.156 691.007 430.809C691.545 431.463 692.254 431.857 693.35 431.947C694.326 432.106 695.188 431.93 695.721 431.461C696.349 431.019 696.648 430.284 696.833 429.213L697.127 427.356L690.841 426.487C690.739 426.867 690.663 427.152 690.612 427.342ZM701.551 442.394L700.671 442.26L700.723 440.543L689.248 438.894L688.79 440.605L687.909 440.471L688.644 435.065L689.525 435.2L689.472 436.917L700.948 438.566L701.406 436.855L702.287 436.989L701.551 442.394Z" fill="black"/>
<path d="M698.74 450.605L699.312 449.23L700.168 449.459L699.034 454.452L698.178 454.223L698.301 452.626L693.403 451.517L691.982 457.961L696.88 459.07L697.452 457.695L698.307 457.924L697.198 462.822L696.343 462.593L696.44 461.091L685.073 458.656L684.596 460.056L683.741 459.827L684.849 454.929L685.705 455.159L685.608 456.66L690.911 457.776L692.332 451.332L687.029 450.217L686.501 451.807L685.646 451.578L686.78 446.585L687.635 446.814L687.538 448.316L698.74 450.605Z" fill="black"/>
<path d="M695.708 469.145L695.173 471.141L681.596 472.392L681.101 473.481L680.245 473.252L681.424 468.475L682.279 468.704L682.061 470.276L684.952 470.133L686.257 464.881L683.8 463.408L683.202 464.877L682.347 464.648L683.398 460.346L684.253 460.575L684.138 461.767L695.708 469.145ZM692.551 469.521L694.294 469.479L692.78 468.666L687.442 465.402L686.314 469.989L692.551 469.521Z" fill="black"/>
<path d="M690.183 484.063L691.098 482.17L691.927 482.494L690.369 487.169L681.566 486.949L679.158 486.813L681.261 488.09L688.429 493.27L686.87 497.945L686.041 497.621L686.48 495.6L674.968 493.33L674.275 494.774L673.445 494.45L675.131 489.299L675.961 489.623L675.623 491.264L683.872 493.169L687.439 493.921L685.128 492.284L676.877 486.202L677.278 485.087L686.753 485.08L690.498 485.166L687.135 483.654L679.388 480.254L678.619 481.983L677.789 481.659L679.322 477.079L680.152 477.403L679.84 478.949L690.183 484.063Z" fill="black"/>
<path d="M684.251 504.679L683.526 506.623L669.907 506.132L669.342 507.101L668.512 506.777L670.356 502.178L671.186 502.502L670.778 504.022L673.687 504.191L675.658 499.117L673.397 497.289L672.61 498.707L671.78 498.383L673.401 494.234L674.231 494.558L674.02 495.724L684.251 504.679ZM681.006 504.624L682.698 504.772L681.331 503.794L676.481 499.846L674.783 504.281L681.006 504.624Z" fill="black"/>
<path d="M679.183 513.71L680.015 512.507L680.845 512.831L679.828 515.105C679.606 515.555 679.504 515.935 679.307 516.29C679.034 516.93 678.881 517.5 678.633 518.044C677.889 519.679 677.109 520.692 676.17 521.153C675.257 521.52 674.23 521.55 672.951 521.004C672.051 520.559 671.368 520.07 670.855 519.322C670.343 518.573 670.141 517.806 670.085 516.874C670.029 515.943 670.284 514.992 670.728 514.093C670.925 513.738 671.002 513.453 671.198 513.099C671.395 512.744 671.446 512.554 671.567 512.484L667.823 510.87L666.616 513.093L665.787 512.769L668.29 507.226L669.12 507.551L668.618 509.046L679.183 513.71ZM671.628 514.538C671.183 515.437 671.169 516.248 671.441 517.136C671.712 518.023 672.466 518.633 673.745 519.179C674.74 519.65 675.551 519.663 676.128 519.41C676.825 519.088 677.314 518.404 677.784 517.41C677.981 517.055 678.083 516.675 678.211 516.2C678.287 515.915 678.338 515.725 678.363 515.63L672.251 512.973C672.174 513.258 671.926 513.803 671.628 514.538Z" fill="black"/>
<path d="M662.716 520.808C663.68 520.251 664.783 519.935 665.904 519.93C667.121 519.951 668.357 520.282 669.611 520.924C670.865 521.565 671.878 522.346 672.53 523.335C673.276 524.35 673.592 525.453 673.692 526.601C673.792 527.748 673.581 528.914 672.965 530.073C672.52 530.972 671.86 531.916 671.054 533.024L670.711 533.543L667.779 531.942L668.274 530.853L670.65 531.49C670.866 531.445 671.132 531.211 671.424 530.882C671.716 530.553 671.938 530.103 672.281 529.584C672.675 528.875 672.758 528.184 672.582 527.322C672.475 526.58 672.057 525.857 671.45 525.083C670.817 524.404 669.969 523.77 668.81 523.153C667.72 522.658 666.7 522.283 665.724 522.123C664.749 521.963 663.817 522.019 662.999 522.411C662.206 522.708 661.648 523.272 661.203 524.171C660.93 524.811 660.708 525.26 660.701 525.666C660.599 526.046 660.618 526.357 660.731 526.693L662.067 528.171L661.406 529.115L659.19 527.502C659.267 527.217 659.368 526.837 659.496 526.362C659.623 525.887 659.63 525.481 659.757 525.006C659.859 524.626 660.107 524.081 660.355 523.536C660.971 522.377 661.726 521.459 662.716 520.808Z" fill="black"/>
<path d="M663.088 548.307L662.309 547.793L663.078 546.063L654.972 541.345L656.148 543.799L659.091 551.819L659.541 552.042L660.614 550.7L661.393 551.214L658.789 555.609L658.01 555.095L658.582 553.72L648.538 547.871L647.585 549.144L646.781 548.725L649.41 544.234L650.215 544.654L649.497 546.193L657.673 551.032L656.446 548.768L653.528 540.652L652.913 540.284L651.815 541.721L651.011 541.302L653.665 536.717L654.47 537.136L653.872 538.606L663.917 544.455L664.843 543.277L665.622 543.791L663.088 548.307Z" fill="black"/>
<path d="M656.371 558.933C656.123 559.478 655.995 559.953 655.799 560.308C655.602 560.663 655.405 561.017 655.233 561.277C654.376 562.575 653.526 563.468 652.613 563.834C651.7 564.201 650.794 564.161 649.92 563.622C649.046 563.082 648.628 562.359 648.452 561.497C648.275 560.635 648.384 559.849 648.734 558.924C648.074 559.868 647.3 560.475 646.437 560.652C645.575 560.828 644.79 560.719 644.011 560.205C642.877 559.494 642.2 558.599 642.1 557.452C641.975 556.4 642.331 555.07 643.36 553.512C643.728 552.897 644.166 552.404 644.604 551.91C645.016 551.511 645.403 551.207 645.669 550.973C645.936 550.739 646.082 550.574 646.177 550.6L648.697 552.599L648.183 553.378L645.883 552.456C645.281 552.804 644.722 553.368 644.062 554.311C643.573 554.995 643.49 555.686 643.622 556.332C643.755 556.979 644.318 557.537 645.192 558.077C645.806 558.445 646.472 558.624 647.213 558.517C647.955 558.41 648.608 557.872 649.148 556.998L649.859 555.864L650.733 556.404L650.193 557.278C649.876 557.702 649.749 558.178 649.621 558.653C649.589 559.153 649.652 559.679 649.835 560.136C650.018 560.592 650.417 561.005 650.936 561.348C651.62 561.837 652.311 561.92 652.862 561.762C653.414 561.604 653.947 561.136 654.436 560.452C654.753 560.028 654.976 559.578 654.982 559.172C655.084 558.792 655.066 558.482 654.926 558.241L653.635 556.978L654.295 556.035L656.778 557.413C656.72 558.008 656.523 558.363 656.371 558.933Z" fill="black"/>
<path d="M646.583 571.895L647.699 570.768L648.478 571.282L647.012 573.334C646.72 573.663 646.497 574.113 646.129 574.727C645.786 575.247 645.589 575.601 645.418 575.861C644.44 577.229 643.495 578.096 642.607 578.367C641.72 578.639 640.839 578.504 640.086 577.895C639.402 577.406 638.864 576.753 638.687 575.891C638.486 575.124 638.594 574.338 638.918 573.508C638.258 574.452 637.484 575.059 636.597 575.331C635.735 575.507 634.854 575.373 634.1 574.764C633.087 573.983 632.531 573.019 632.431 571.872C632.331 570.724 632.833 569.229 634.077 567.627C634.369 567.298 634.566 566.944 634.858 566.614C635.467 565.861 635.81 565.342 635.931 565.272L637.397 563.22L638.176 563.735L637.414 565.058L646.583 571.895ZM634.666 568.091C633.885 569.104 633.631 570.054 633.642 570.77C633.654 571.486 634.167 572.235 634.946 572.749C635.699 573.359 636.459 573.562 637.106 573.43C637.753 573.298 638.406 572.76 639.041 571.911C639.821 570.898 640.215 570.189 640.387 569.929L635.859 566.679C635.739 566.748 635.301 567.242 634.666 568.091ZM640.721 571.343L640.086 572.191C639.597 572.875 639.419 573.54 639.551 574.187C639.684 574.834 640.127 575.462 640.81 575.95C641.494 576.439 642.16 576.617 642.781 576.58C643.332 576.422 643.96 575.98 644.62 575.036C644.912 574.707 645.135 574.257 645.332 573.902L645.529 573.548L641.356 570.494C641.305 570.684 641.038 570.919 640.721 571.343Z" fill="black"/>
<path d="M637.807 585.637L636.563 587.239L623.608 582.749L622.783 583.546L622.03 582.937L625.102 579.075L625.855 579.684L624.998 580.982L627.678 582.006L631.067 577.719L629.46 575.354L628.344 576.48L627.59 575.871L630.345 572.433L631.098 573.042L630.507 574.106L637.807 585.637ZM634.722 584.606L636.287 585.229L635.236 583.827L631.744 578.614L628.818 582.311L634.722 584.606Z" fill="black"/>
<path d="M620.455 585.775C621.558 585.459 622.679 585.454 623.82 585.76C624.96 586.065 626.094 586.776 627.177 587.678C628.259 588.579 629.006 589.594 629.416 590.722C629.827 591.851 629.927 592.998 629.717 594.164C629.506 595.33 628.915 596.394 628.16 597.312C627.551 598.065 626.631 598.838 625.59 599.679L625.083 600.052L622.665 597.673L623.515 596.78L625.643 597.962C625.859 597.918 626.195 597.804 626.582 597.5C626.943 597.292 627.356 596.893 627.699 596.373C628.257 595.81 628.556 595.075 628.569 594.264C628.678 593.478 628.476 592.711 627.989 591.868C627.502 591.024 626.92 590.155 625.907 589.375C624.989 588.619 624.14 587.985 623.216 587.635C622.291 587.285 621.41 587.151 620.573 587.232C619.737 587.314 619.014 587.731 618.404 588.485C617.966 588.979 617.649 589.403 617.547 589.783C617.35 590.138 617.369 590.448 617.293 590.733L618.146 592.49L617.226 593.262L615.543 591.181C615.689 591.017 615.886 590.662 616.134 590.117C616.356 589.667 616.553 589.313 616.75 588.958C616.947 588.603 617.264 588.179 617.702 587.685C618.337 586.837 619.352 586.09 620.455 585.775Z" fill="black"/>
<path d="M616.54 605.708C616.855 606.811 616.885 607.838 616.631 608.788C616.376 609.739 615.932 610.638 615.132 611.34C614.282 612.233 613.318 612.79 612.335 613.036C611.353 613.282 610.256 613.192 609.236 612.816C608.216 612.441 607.178 611.756 606.19 610.88C605.133 609.884 604.317 608.748 603.932 607.525C603.521 606.396 603.326 605.223 603.606 604.178C603.791 603.107 604.357 602.138 605.086 601.315C605.937 600.422 606.901 599.866 607.909 599.525C608.891 599.279 609.988 599.369 611.008 599.744C612.027 600.119 613.066 600.805 614.054 601.681L616.167 599.497L612.198 595.683L610.916 596.664L610.283 595.985L613.83 592.25L614.489 592.834L613.537 594.107L621.874 602.146L623.035 601.235L623.668 601.914L620.146 605.554L619.513 604.875L620.465 603.602L616.825 600.081L614.712 602.265C615.693 603.546 616.224 604.605 616.54 605.708ZM615.365 607.43C615.075 606.232 614.215 604.881 612.759 603.473C611.467 602.21 610.144 601.448 608.883 601.212C607.622 600.976 606.519 601.291 605.668 602.184C604.818 603.077 604.563 604.027 604.854 605.225C605.144 606.423 606.004 607.774 607.555 609.208C608.846 610.471 610.075 611.208 611.31 611.539C612.546 611.87 613.554 611.529 614.404 610.636C615.254 609.744 615.535 608.698 615.365 607.43Z" fill="black"/>
<path d="M598.268 616.498C597.482 616.389 596.437 616.109 595.201 615.778C594.346 615.549 593.681 615.371 593.206 615.244C592.825 615.142 592.515 615.16 592.274 615.3L591.576 615.622L590.943 614.943L592.593 613.348C592.834 613.209 593.17 613.095 593.835 613.273C594.406 613.426 595.261 613.655 596.401 613.961C597.611 614.387 598.562 614.642 599.347 614.75C600.013 614.928 600.539 614.866 600.831 614.537L601.655 613.739L598.022 609.812L596.646 610.767L596.013 610.088L599.794 606.62L600.427 607.299L599.406 608.451L607.305 616.984L608.561 616.099L609.194 616.777L605.533 620.176L604.9 619.497L605.852 618.225L602.219 614.297L601.007 615.399L601.899 621.953L603.155 621.067L603.788 621.746L600.394 624.911L599.761 624.232L600.687 623.054L599.941 616.335C599.77 616.595 599.054 616.607 598.268 616.498Z" fill="black"/>
<path d="M588.988 617.678C590.04 617.553 591.111 617.738 592.08 618.303C593.17 618.799 594.062 619.649 594.999 620.715C595.936 621.781 596.536 622.96 596.826 624.159C597.117 625.357 597.122 626.478 596.746 627.498C596.371 628.518 595.806 629.487 594.886 630.259C593.433 631.5 591.874 631.999 590.302 631.781C588.731 631.564 587.268 630.561 585.768 628.936C584.831 627.871 584.231 626.691 583.94 625.493C583.65 624.295 583.645 623.173 584.046 622.058C584.352 620.918 584.986 620.069 585.906 619.297C586.903 618.24 587.936 617.804 588.988 617.678ZM595.55 626.261C595.38 624.993 594.641 623.573 593.305 622.095C592.065 620.642 590.862 619.81 589.652 619.384C588.442 618.958 587.364 619.178 586.444 619.951C585.524 620.723 585.149 621.743 585.319 623.01C585.488 624.278 586.228 625.699 587.538 627.272C588.779 628.725 589.982 629.556 591.192 629.982C592.427 630.313 593.505 630.093 594.425 629.321C595.345 628.549 595.72 627.529 595.55 626.261Z" fill="black"/>
<path d="M586.857 635.136L588.183 634.371L588.79 635.145L586.855 636.663C586.494 636.872 586.081 637.271 585.643 637.765C585.231 638.164 584.844 638.467 584.603 638.606C583.201 639.657 582.142 640.188 581.21 640.244C580.279 640.3 579.474 639.88 578.867 639.107C578.329 638.453 578.032 637.661 578.046 636.849C578.059 636.038 578.358 635.303 578.942 634.645C578.022 635.417 577.109 635.784 576.203 635.744C575.297 635.705 574.492 635.286 573.885 634.512C573.138 633.497 572.823 632.394 573.033 631.228C573.244 630.062 574.196 628.79 575.744 627.575C576.131 627.271 576.492 627.062 576.759 626.828C577.532 626.221 578.014 625.942 578.16 625.778L580.095 624.259L580.608 625.007L579.491 626.134L586.857 635.136ZM576.472 628.279C575.457 629.026 574.942 629.805 574.834 630.59C574.725 631.376 574.927 632.143 575.534 632.917C576.142 633.691 576.756 634.059 577.447 634.143C578.138 634.226 578.835 633.903 579.73 633.226C580.744 632.48 581.398 631.942 581.569 631.682L578.159 627.305C577.778 627.203 577.271 627.577 576.472 628.279ZM581.403 633.064L580.629 633.671C579.976 634.209 579.607 634.823 579.524 635.514C579.441 636.205 579.668 636.877 580.301 637.556C580.839 638.209 581.453 638.577 582.049 638.635C582.645 638.693 583.342 638.37 584.237 637.693C584.624 637.39 584.915 637.06 585.302 636.757L585.569 636.523L582.392 632.412C582.056 632.526 581.79 632.76 581.403 633.064Z" fill="black"/>
<g style="mix-blend-mode:overlay">
<circle cx="172.196" cy="167.151" r="2" fill="black"/>
</g>
<g style="mix-blend-mode:overlay">
<circle cx="576.695" cy="141.521" r="2" fill="black"/>
</g>
</g>
</svg>
